<?xml version="1.0" encoding="UTF-8"?>
<svg version="1.1" xmlns="http://www.w3.org/2000/svg" width="1663" height="798">
<path d="M0 0 C548.79 0 1097.58 0 1663 0 C1663 263.34 1663 526.68 1663 798 C1114.21 798 565.42 798 0 798 C0 534.66 0 271.32 0 0 Z " fill="#000000" transform="translate(0,0)"/>
<path d="M0 0 C1.13300216 -0.00384115 2.26600433 -0.00768229 3.43333989 -0.01163983 C5.31632277 -0.01034011 5.31632277 -0.01034011 7.2373457 -0.00901413 C8.57606933 -0.01159643 9.9147922 -0.01460921 11.25351399 -0.01801753 C14.94485757 -0.02610674 18.63618173 -0.02787817 22.32753313 -0.028615 C26.30377787 -0.03046223 30.28001244 -0.03800789 34.25625134 -0.04475021 C42.95660298 -0.05834773 51.65695003 -0.06436047 60.35731053 -0.06876087 C65.7870212 -0.07152092 71.21673009 -0.07575784 76.64643955 -0.08026505 C91.67150575 -0.09245961 106.6965705 -0.10275852 121.72164154 -0.10614014 C122.68378715 -0.1063597 123.64593275 -0.10657927 124.63723428 -0.10680549 C125.60171888 -0.10702377 126.56620348 -0.10724204 127.55991489 -0.10746694 C129.5144188 -0.10791041 131.46892272 -0.10835697 133.42342663 -0.10880661 C134.39293387 -0.10902804 135.36244112 -0.10924947 136.36132737 -0.10947761 C152.07473637 -0.11342655 167.78809901 -0.13088266 183.50149009 -0.15416613 C199.62346633 -0.17786275 215.74541929 -0.19034122 231.86741322 -0.19150805 C240.92364473 -0.19242577 249.97981586 -0.19820237 259.03603077 -0.21632767 C266.74701842 -0.23170589 274.45792704 -0.23686264 282.16892711 -0.22858956 C286.10471288 -0.22467493 290.04033938 -0.22565207 293.97610569 -0.23964691 C297.57792077 -0.25233739 301.17945611 -0.25123141 304.78127053 -0.2390562 C306.70415169 -0.23615835 308.62703748 -0.2480717 310.5498808 -0.26047826 C312.26111891 -0.25059349 312.26111891 -0.25059349 314.00692749 -0.24050903 C314.9912176 -0.24110612 315.97550771 -0.24170321 316.9896248 -0.24231839 C320.22161746 0.20463807 322.07236692 1.21039428 324.69222546 3.13142776 C327.21406168 6.91418211 326.99814097 9.95872895 326.99300671 14.34236526 C326.99729183 15.14751572 327.00157696 15.95266617 327.00599194 16.78221512 C327.01173307 18.48519832 327.01223708 20.18820604 327.00789928 21.89119339 C327.00474548 24.48992957 327.0281786 27.08752035 327.05355358 29.68611526 C327.0558273 31.34236383 327.05652973 32.99861545 327.05550671 34.65486526 C327.06471645 35.42897751 327.0739262 36.20308975 327.08341503 37.00065994 C327.04466356 41.54664325 326.61813653 44.58228729 323.69222546 48.13142776 C320.46727572 50.17329806 317.91754636 50.38328052 314.13835526 50.38869667 C313.00137099 50.39514556 311.86438673 50.40159446 310.6929484 50.40823877 C308.81870405 50.40359296 308.81870405 50.40359296 306.90659618 50.3988533 C305.5661447 50.40258924 304.22569539 50.40719053 302.88524956 50.41258395 C299.1984036 50.42483622 295.51164823 50.42455088 291.82478654 50.4221952 C287.84993134 50.4217876 283.8751054 50.43282065 279.90026379 50.44231033 C272.11192393 50.45893295 264.32361435 50.46442043 256.53525824 50.46553509 C250.2062534 50.46648486 243.87725856 50.4705916 237.54825687 50.47693634 C219.61251598 50.49455133 201.67679903 50.50377468 183.74104942 50.50227539 C182.77385108 50.50219548 181.80665275 50.50211557 180.81014538 50.50203323 C179.84176914 50.50195147 178.87339289 50.50186971 177.87567192 50.50178547 C162.17530334 50.50097225 146.47503064 50.52011831 130.7746898 50.54830997 C114.66168535 50.57701485 98.5487277 50.59085162 82.43569702 50.58912241 C73.38618671 50.58845774 64.33677693 50.59398416 55.28728962 50.61547852 C47.58364756 50.63365872 39.88015159 50.63806369 32.17649741 50.62445967 C28.24470552 50.61791426 24.31319419 50.61786913 20.38142872 50.63516617 C16.78331533 50.65083287 13.18570643 50.6480997 9.58760583 50.6305979 C7.66680429 50.62605078 5.7459875 50.64123541 3.82524592 50.65707719 C2.1158579 50.64328081 2.1158579 50.64328081 0.3719368 50.6292057 C-1.10287215 50.62985781 -1.10287215 50.62985781 -2.60747522 50.63052309 C-6.10373193 49.98431126 -7.78662928 48.59417982 -10.30777454 46.13142776 C-11.55969311 42.37567207 -11.5088881 38.83584244 -11.54605579 34.92049026 C-11.55412754 34.11533981 -11.56219929 33.31018936 -11.57051563 32.48064041 C-11.58433755 30.77766945 -11.59506816 29.074671 -11.60294056 27.37166214 C-11.6201659 24.77281982 -11.66406842 22.17524607 -11.70816517 19.57674026 C-11.71829168 17.9204996 -11.72680792 16.26424814 -11.73355579 14.60799026 C-11.75106388 13.83387802 -11.76857197 13.05976578 -11.7866106 12.26219559 C-11.77155643 8.50217663 -11.45494526 6.36107379 -9.40616322 3.16414261 C-6.1853323 0.04411489 -4.38144159 0.00555137 0 0 Z " fill="#FDFDFD" transform="translate(678.3077745437622,407.8685722351074)"/>
<path d="M0 0 C1.02042469 -0.00573832 1.02042469 -0.00573832 2.06146401 -0.01159257 C4.34608239 -0.02192968 6.63044977 -0.01792911 8.91508484 -0.01396179 C10.55109388 -0.01830796 12.18710089 -0.02349079 13.82310486 -0.02944946 C18.27155817 -0.04286306 22.71992664 -0.04341536 27.16839623 -0.04088616 C30.8810686 -0.03981774 34.5937237 -0.04469668 38.30639237 -0.04949158 C47.06643184 -0.06059559 55.82642845 -0.06101959 64.58647156 -0.05497742 C73.62337988 -0.04894004 82.66013241 -0.06124057 91.69701415 -0.08254749 C99.45422684 -0.10016472 107.21138995 -0.10616453 114.96862191 -0.10290974 C119.6022049 -0.10109645 124.23567683 -0.10373739 128.86924171 -0.11762428 C133.22852271 -0.13019947 137.58756111 -0.12826147 141.94683838 -0.11521339 C143.54559092 -0.11284714 145.1443605 -0.11558409 146.74309349 -0.12383652 C148.92845668 -0.1343022 151.11300569 -0.1262055 153.29833984 -0.11352539 C154.52042806 -0.11369313 155.74251627 -0.11386087 157.00163746 -0.1140337 C161.50673213 0.39171544 164.8567511 1.88908287 168.18754578 4.96992493 C169.82822232 8.23215591 169.78806461 11.34066021 169.77323914 14.91304016 C169.77848099 15.65018753 169.78372284 16.3873349 169.78912354 17.14682007 C169.79553358 18.70258833 169.79421986 20.25840512 169.78569031 21.81416321 C169.77718481 24.18719841 169.80594339 26.55782105 169.83769226 28.93061829 C169.83930465 30.44559153 169.83872602 31.96056901 169.83573914 33.47554016 C169.84697311 34.18089401 169.85820709 34.88624786 169.86978149 35.61297607 C169.82123073 39.06716888 169.41113014 41.14166348 167.62113953 44.12226868 C163.2967164 48.17551877 159.21758961 48.5122328 153.43205261 48.52812195 C152.74935507 48.53265306 152.06665753 48.53718417 151.36327219 48.54185259 C149.08254074 48.55448262 146.8020485 48.55287718 144.52128601 48.55122375 C142.8833587 48.55720975 141.24543421 48.56401546 139.60751343 48.57157898 C135.16338554 48.58923561 130.71933467 48.59393412 126.27517509 48.59521055 C123.49862747 48.59663251 120.72209941 48.60090288 117.94555664 48.60620499 C108.25936133 48.62470175 98.57322105 48.63287574 88.88700867 48.63130188 C79.85681627 48.63009947 70.8268625 48.65122212 61.79673052 48.68278921 C54.0428888 48.70892929 46.28912515 48.71967018 38.5352397 48.71839106 C33.90447058 48.7178809 29.27391371 48.72359409 24.64318848 48.74474716 C20.28957795 48.76409227 15.93638303 48.76427977 11.58275795 48.7497139 C9.9851909 48.74762028 8.38759808 48.75235956 6.7900753 48.76443481 C4.60863951 48.77985586 2.42864261 48.77060216 0.24723816 48.75517273 C-0.97317421 48.75626226 -2.19358658 48.7573518 -3.45098114 48.75847435 C-7.28464311 48.16386847 -8.92053096 46.95387197 -11.66035461 44.26069641 C-14.85942797 38.58098053 -14.03236349 31.82124271 -14.03096008 25.48628235 C-14.03534201 23.26708199 -14.07172413 21.04985911 -14.10957336 18.83100891 C-14.11544091 17.41174483 -14.11941072 15.99247137 -14.12129211 14.57319641 C-14.12950989 13.29057922 -14.13772766 12.00796204 -14.14619446 10.68647766 C-13.57767755 6.67771924 -12.48788662 5.10038021 -9.66035461 2.26069641 C-6.02339104 -0.16394597 -4.33225567 0.00728409 0 0 Z " fill="#010101" transform="translate(758.6603546142578,493.7393035888672)"/>
<path d="M0 0 C3.46236126 2.39067801 5.74528805 5.0530761 7.625 8.8125 C8.13447062 16.36638175 8.44538783 23.1268213 4.625 29.8125 C5.945 30.1425 7.265 30.4725 8.625 30.8125 C8.295 32.7925 7.965 34.7725 7.625 36.8125 C2.875 36.0625 2.875 36.0625 0.625 33.8125 C-1.60418857 33.77202187 -3.83560314 33.82864 -6.0625 33.9375 C-12.2785591 34.00112394 -15.64911763 33.92196293 -20.375 29.8125 C-24.476804 24.68832443 -25.05954012 19.14124941 -24.82421875 12.72265625 C-23.92775345 6.9151202 -21.34170918 3.27609753 -16.6875 -0.1875 C-10.93268451 -1.92480279 -5.68561585 -2.00049447 0 0 Z " fill="#EEE2CC" transform="translate(969.375,278.1875)"/>
<path d="M0 0 C1.02042469 -0.00573832 1.02042469 -0.00573832 2.06146401 -0.01159257 C4.34608239 -0.02192968 6.63044977 -0.01792911 8.91508484 -0.01396179 C10.55109388 -0.01830796 12.18710089 -0.02349079 13.82310486 -0.02944946 C18.27155817 -0.04286306 22.71992664 -0.04341536 27.16839623 -0.04088616 C30.8810686 -0.03981774 34.5937237 -0.04469668 38.30639237 -0.04949158 C47.06643184 -0.06059559 55.82642845 -0.06101959 64.58647156 -0.05497742 C73.62337988 -0.04894004 82.66013241 -0.06124057 91.69701415 -0.08254749 C99.45422684 -0.10016472 107.21138995 -0.10616453 114.96862191 -0.10290974 C119.6022049 -0.10109645 124.23567683 -0.10373739 128.86924171 -0.11762428 C133.22852271 -0.13019947 137.58756111 -0.12826147 141.94683838 -0.11521339 C143.54559092 -0.11284714 145.1443605 -0.11558409 146.74309349 -0.12383652 C148.92845668 -0.1343022 151.11300569 -0.1262055 153.29833984 -0.11352539 C154.52042806 -0.11369313 155.74251627 -0.11386087 157.00163746 -0.1140337 C161.50673213 0.39171544 164.8567511 1.88908287 168.18754578 4.96992493 C169.82822232 8.23215591 169.78806461 11.34066021 169.77323914 14.91304016 C169.77848099 15.65018753 169.78372284 16.3873349 169.78912354 17.14682007 C169.79553358 18.70258833 169.79421986 20.25840512 169.78569031 21.81416321 C169.77718481 24.18719841 169.80594339 26.55782105 169.83769226 28.93061829 C169.83930465 30.44559153 169.83872602 31.96056901 169.83573914 33.47554016 C169.84697311 34.18089401 169.85820709 34.88624786 169.86978149 35.61297607 C169.82123073 39.06716888 169.41113014 41.14166348 167.62113953 44.12226868 C163.2967164 48.17551877 159.21758961 48.5122328 153.43205261 48.52812195 C152.74935507 48.53265306 152.06665753 48.53718417 151.36327219 48.54185259 C149.08254074 48.55448262 146.8020485 48.55287718 144.52128601 48.55122375 C142.8833587 48.55720975 141.24543421 48.56401546 139.60751343 48.57157898 C135.16338554 48.58923561 130.71933467 48.59393412 126.27517509 48.59521055 C123.49862747 48.59663251 120.72209941 48.60090288 117.94555664 48.60620499 C108.25936133 48.62470175 98.57322105 48.63287574 88.88700867 48.63130188 C79.85681627 48.63009947 70.8268625 48.65122212 61.79673052 48.68278921 C54.0428888 48.70892929 46.28912515 48.71967018 38.5352397 48.71839106 C33.90447058 48.7178809 29.27391371 48.72359409 24.64318848 48.74474716 C20.28957795 48.76409227 15.93638303 48.76427977 11.58275795 48.7497139 C9.9851909 48.74762028 8.38759808 48.75235956 6.7900753 48.76443481 C4.60863951 48.77985586 2.42864261 48.77060216 0.24723816 48.75517273 C-0.97317421 48.75626226 -2.19358658 48.7573518 -3.45098114 48.75847435 C-7.28464311 48.16386847 -8.92053096 46.95387197 -11.66035461 44.26069641 C-14.85942797 38.58098053 -14.03236349 31.82124271 -14.03096008 25.48628235 C-14.03534201 23.26708199 -14.07172413 21.04985911 -14.10957336 18.83100891 C-14.11544091 17.41174483 -14.11941072 15.99247137 -14.12129211 14.57319641 C-14.12950989 13.29057922 -14.13772766 12.00796204 -14.14619446 10.68647766 C-13.57767755 6.67771924 -12.48788662 5.10038021 -9.66035461 2.26069641 C-6.02339104 -0.16394597 -4.33225567 0.00728409 0 0 Z M-10.66035461 6.26069641 C-12.84749852 10.63498422 -11.88746083 16.52029776 -11.90058899 21.38154602 C-11.91027151 23.55454624 -11.94128287 25.72659104 -11.97285461 27.89936829 C-11.9793873 29.28673247 -11.98463673 30.67410342 -11.98847961 32.06147766 C-11.99782532 33.32129456 -12.00717102 34.58111145 -12.01679993 35.87910461 C-11.63141997 39.53519896 -10.88045412 41.36396728 -8.66035461 44.26069641 C-5.03007813 46.68088073 -3.35422766 46.51408796 0.96876526 46.52139282 C1.6456704 46.52521837 2.32257553 46.52904392 3.01999295 46.53298539 C5.29312617 46.54332206 7.56600711 46.53932204 9.8391571 46.53535461 C11.46693659 46.53970077 13.09471402 46.54488359 14.7224884 46.55084229 C19.14814814 46.56425502 23.5737226 46.56480836 27.99939871 46.56227899 C31.69228274 46.56121066 35.38514943 46.56608918 39.07802975 46.57088441 C47.79008535 46.58198779 56.50209785 46.58241255 65.2141571 46.57637024 C74.20450656 46.5703308 83.19469949 46.58263879 92.18502223 46.60394031 C99.9006061 46.62154993 107.61614013 46.62755862 115.33174336 46.62430257 C119.9412614 46.6224883 124.55066783 46.62514003 129.16016769 46.63901711 C133.49564359 46.65158019 137.83087542 46.64966581 142.1663475 46.63660622 C143.75745729 46.63423744 145.34858418 46.63698592 146.93967438 46.64522934 C149.11225302 46.65567355 151.28400924 46.64761567 153.45655823 46.63491821 C154.67219389 46.63508595 155.88782955 46.6352537 157.14030266 46.63542652 C160.64596645 46.22481788 162.51956255 45.34049234 165.33964539 43.26069641 C168.85872318 38.49164751 167.71154364 31.66753277 167.71025085 25.9889679 C167.71462489 23.833298 167.75096969 21.67967636 167.78886414 19.52436829 C167.79473299 18.14612004 167.79870192 16.76786212 167.80058289 15.38960266 C167.80880066 14.14251526 167.81701843 12.89542786 167.82548523 11.61054993 C167.25291517 7.66269378 166.16370863 6.03014364 163.33964539 3.26069641 C159.9277861 2.12340998 157.30967485 2.1261858 153.71052551 2.11352539 C152.69516781 2.10801036 152.69516781 2.10801036 151.65929782 2.10238391 C149.38623545 2.0913519 147.1132188 2.0875041 144.84013367 2.08369446 C143.21235509 2.07742956 141.58457795 2.07078274 139.95680237 2.06378174 C135.53117058 2.04637742 131.10554958 2.03582203 126.67989206 2.02757621 C123.91575718 2.02242597 121.15162565 2.01635032 118.38749313 2.01006508 C109.74147064 1.99101654 101.09545668 1.97678339 92.44941723 1.96845311 C82.46426791 1.95867397 72.47933986 1.93233543 62.49426854 1.89195222 C54.77869289 1.86181654 47.06318078 1.84698676 39.34754741 1.8436721 C34.73797278 1.84131916 30.12863466 1.83232693 25.51912308 1.80721092 C21.18361421 1.78396894 16.84849823 1.77968121 12.51294327 1.78997231 C10.92182103 1.79046869 9.33067971 1.78411817 7.73961639 1.77041626 C5.56684912 1.75275166 3.39550027 1.75977486 1.22273254 1.77294922 C0.00709688 1.77056087 -1.20853878 1.76817251 -2.46101189 1.76571178 C-6.2821415 2.35689584 -7.92917056 3.57791761 -10.66035461 6.26069641 Z " fill="#FEFEFE" transform="translate(758.6603546142578,493.7393035888672)"/>
<path d="M0 0 C0.99 0 1.98 0 3 0 C5.14639105 4.35419911 5.30662189 8.39203126 5.30078125 13.15234375 C5.30506638 13.93009659 5.3093515 14.70784943 5.31376648 15.50917053 C5.3194918 17.14892608 5.32002332 18.78870702 5.31567383 20.4284668 C5.31251447 22.92606268 5.33599204 25.42247226 5.36132812 27.91992188 C5.3636015 29.51822768 5.36430443 31.11653665 5.36328125 32.71484375 C5.372491 33.45564682 5.38170074 34.19644989 5.39118958 34.95970154 C5.34911291 39.71640534 4.72715404 43.06940432 2 47 C-3.78029904 51.12313102 -10.19091462 50.41465232 -16.98817444 50.3742218 C-18.32622784 50.37696355 -19.66427908 50.38101661 -21.002325 50.38626546 C-24.67331053 50.39684434 -28.34405228 50.38872859 -32.01502717 50.37751496 C-35.97621025 50.36866977 -39.93736155 50.37711735 -43.89854431 50.38337708 C-51.65589089 50.39286499 -59.41314445 50.38626543 -67.17048413 50.37411413 C-76.20230544 50.36049338 -85.2341046 50.36213204 -94.26593357 50.36424746 C-110.37921245 50.3674373 -126.49244712 50.35576963 -142.60571289 50.33618164 C-158.24537502 50.31717435 -173.88498535 50.31009493 -189.5246582 50.31567383 C-206.55208105 50.32172978 -223.57948111 50.32155816 -240.60690206 50.310188 C-242.42202628 50.30898069 -244.23715049 50.30777471 -246.0522747 50.30657005 C-247.39192206 50.30566475 -247.39192206 50.30566475 -248.75863301 50.30474115 C-255.05617872 50.30085984 -261.35371595 50.30125643 -267.65126228 50.3031559 C-275.32372247 50.30527663 -282.99613726 50.30006297 -290.66858465 50.28554235 C-294.58410617 50.27829221 -298.49956152 50.27422662 -302.41508865 50.27878571 C-305.99819893 50.28285631 -309.58117247 50.27771327 -313.16426199 50.26515963 C-315.07699681 50.26083613 -316.989746 50.26632864 -318.90247685 50.27214891 C-320.03735206 50.26631671 -321.17222728 50.26048452 -322.34149265 50.25447559 C-323.32057671 50.25360882 -324.29966077 50.25274204 -325.30841404 50.251849 C-328.19718054 49.98155002 -330.37380238 49.20410779 -333 48 C-332.67 47.01 -332.34 46.02 -332 45 C-331.01 45.66 -330.02 46.32 -329 47 C-326.46578121 47.30226037 -326.46578121 47.30226037 -323.56917763 47.25447559 C-322.43418441 47.26030779 -321.2991912 47.26613998 -320.12980425 47.27214891 C-318.25119064 47.26647992 -318.25119064 47.26647992 -316.33462524 47.26069641 C-314.99503725 47.2637154 -313.65545098 47.26760361 -312.31586778 47.27228898 C-308.62675788 47.28261044 -304.9377447 47.28037666 -301.24862671 47.27610838 C-297.27307576 47.27364863 -293.29754856 47.28264598 -289.32200623 47.29014587 C-281.53018325 47.30291616 -273.7383947 47.30468365 -265.94656302 47.30234561 C-259.61467432 47.30056478 -253.2827961 47.30230703 -246.95090866 47.30657005 C-246.05076634 47.30716524 -245.15062402 47.30776043 -244.22320466 47.30837366 C-242.39473292 47.30958537 -240.56626118 47.31079951 -238.73778944 47.31201603 C-221.57757754 47.32290068 -204.41738528 47.32072479 -187.25717227 47.31463119 C-171.55029004 47.30946197 -155.84346982 47.32071596 -140.13659985 47.33972941 C-124.01910798 47.35909073 -107.90164548 47.36736676 -91.7841419 47.36360615 C-82.73128366 47.36169142 -73.6784782 47.36420808 -64.62562943 47.37832069 C-56.91831995 47.39021381 -49.21109575 47.39166276 -41.50378515 47.37953053 C-37.57002181 47.37362705 -33.6364146 47.3725827 -29.70266151 47.38453293 C-26.10272985 47.3953421 -22.50308559 47.39234809 -18.90316765 47.37827124 C-16.98133361 47.37434834 -15.05948705 47.38521193 -13.13768256 47.39656812 C-11.99747385 47.38936158 -10.85726514 47.38215503 -9.68250465 47.37473011 C-8.69875661 47.37478513 -7.71500858 47.37484014 -6.70144999 47.37489682 C-3.47190804 46.92671343 -1.59404107 45.95560424 1 44 C2.2578149 40.22655531 2.16236879 36.68556287 2.16796875 32.75390625 C2.17129715 31.94638412 2.17462555 31.138862 2.17805481 30.30686951 C2.18311513 28.59968637 2.18546341 26.89249336 2.18530273 25.18530273 C2.18748882 22.57584315 2.20565262 19.96680665 2.22460938 17.35742188 C2.22754357 15.69791811 2.22952819 14.03841234 2.23046875 12.37890625 C2.24124702 11.20999596 2.24124702 11.20999596 2.25224304 10.01747131 C2.23617063 6.19983945 2.15926595 3.23435255 0 0 Z " fill="#757575" transform="translate(1002,410)"/>
<path d="M0 0 C1.33734138 -0.0034582 2.6746799 -0.00822385 4.01201248 -0.01418173 C7.6810604 -0.02669927 11.34987407 -0.02051801 15.01892281 -0.01122308 C18.97808541 -0.00443599 22.93720771 -0.01491212 26.8963623 -0.02316284 C34.65002846 -0.03650601 42.40360753 -0.03361984 50.15727711 -0.02492492 C56.45857775 -0.01815108 62.75985398 -0.01723036 69.06115723 -0.02049637 C69.95782899 -0.02095607 70.85450076 -0.02141577 71.77834439 -0.0218894 C73.59988881 -0.02284857 75.42143322 -0.02382121 77.24297762 -0.02480717 C94.32551207 -0.03336277 111.40799824 -0.02352426 128.49052477 -0.00740607 C143.14963184 0.00599727 157.80866765 0.00366922 172.46777344 -0.01016235 C189.48898365 -0.02621516 206.51015153 -0.03253878 223.53136826 -0.02332556 C225.34622955 -0.02236991 227.16109084 -0.0214268 228.97595215 -0.02049637 C229.86890968 -0.02003354 230.7618672 -0.01957072 231.68188405 -0.01909386 C237.975962 -0.01650308 244.27001312 -0.02087689 250.56408691 -0.02793503 C258.23397149 -0.03634689 265.90376395 -0.0340765 273.57363796 -0.0180928 C277.48728951 -0.01020584 281.40078744 -0.00712566 285.31443787 -0.01704025 C288.8970388 -0.02597895 292.47934371 -0.02106814 296.06191778 -0.0051076 C297.97192891 -0.00016855 299.88196057 -0.00996374 301.79195023 -0.02027929 C312.08072643 0.05052199 312.08072643 0.05052199 317.01855469 3.38095093 C314.01855469 4.38095093 314.01855469 4.38095093 311.01855469 3.38095093 C309.21024494 3.28506477 307.39857739 3.24822811 305.58773232 3.24393654 C304.4527391 3.238862 303.31774589 3.23378745 302.14835894 3.22855914 C300.89594987 3.22806138 299.64354079 3.22756362 298.35317993 3.22705078 C297.01359281 3.22303616 295.67400691 3.21859793 294.33442247 3.21377122 C290.64534296 3.20180037 286.95627653 3.19615612 283.2671814 3.19159007 C279.2916325 3.18563612 275.31609926 3.17402596 271.34056091 3.16329956 C261.73696621 3.13877393 252.13336632 3.12414979 242.52974993 3.11123949 C239.8184066 3.1075282 237.10706378 3.10355493 234.39572096 3.09948683 C217.56615489 3.07425502 200.73658803 3.05219746 183.90700722 3.03975868 C180.0086428 3.0368289 176.11027841 3.03386724 172.21191406 3.03085327 C171.24297232 3.03010722 170.27403057 3.02936117 169.27572696 3.02859251 C153.5688142 3.01593063 137.86201444 2.9826961 122.15515454 2.94105144 C106.03766778 2.8986674 89.92023894 2.87506789 73.80269659 2.86983812 C64.74978194 2.86642039 55.69704399 2.8546224 46.64418411 2.82173538 C38.9368473 2.79378241 31.22972341 2.78271463 23.52233984 2.79393084 C19.58846176 2.79912941 15.65502991 2.79615375 11.7212162 2.7714653 C8.12113281 2.74905937 4.52181841 2.74964393 0.92172234 2.76866917 C-1.00014283 2.77281554 -2.92201201 2.75225972 -4.84376276 2.73088229 C-11.47823724 2.72628525 -11.47823724 2.72628525 -17.25243568 5.677145 C-19.59765788 9.34457725 -19.62979231 12.53849929 -19.50488281 16.75204468 C-19.50017975 17.55199356 -19.49547668 18.35194244 -19.4906311 19.1761322 C-19.46935348 21.72446116 -19.41282146 24.27068294 -19.35644531 26.81845093 C-19.33992732 28.5274155 -19.32558206 30.23640253 -19.31347656 31.94540405 C-19.24560129 41.71138933 -19.24560129 41.71138933 -17.98144531 51.38095093 C-20.22924281 49.32861408 -20.98366951 48.37427832 -21.98144531 45.38095093 C-22.1022282 42.71988442 -22.1695498 40.0858069 -22.18457031 37.42391968 C-22.19027039 36.64333694 -22.19597046 35.86275421 -22.20184326 35.05851746 C-22.21128481 33.40681307 -22.21782389 31.75508991 -22.22167969 30.10336304 C-22.23136949 27.58813206 -22.26239332 25.07372402 -22.29394531 22.5586853 C-22.30047745 20.95126826 -22.3057271 19.3438454 -22.30957031 17.73641968 C-22.32191711 16.9893425 -22.33426392 16.24226532 -22.34698486 15.47254944 C-22.32678767 10.69018705 -21.72945805 7.33040525 -18.98144531 3.38095093 C-13.2018019 -0.73897083 -6.79589334 -0.03670352 0 0 Z " fill="#212121" transform="translate(686.9814453125,405.6190490722656)"/>
<path d="M0 0 C0.99 0.33 1.98 0.66 3 1 C5.33299825 1.03954234 7.66708189 1.04401732 10 1 C10.11656783 5.20809884 10.18737611 9.41577996 10.25 13.625 C10.30027344 15.40970703 10.30027344 15.40970703 10.3515625 17.23046875 C10.47648241 28.41080041 10.47648241 28.41080041 6 33 C1.37867136 34.54044288 -3.17401863 34.51430166 -8 34 C-11.1875 32.25 -11.1875 32.25 -13 30 C-13 28.68 -13 27.36 -13 26 C-5.51492537 26.8880597 -5.51492537 26.8880597 -2.125 27.625 C0.04533618 28.22560146 0.04533618 28.22560146 2 27 C2 25.68 2 24.36 2 23 C1.01 23.66 0.02 24.32 -1 25 C-4.375 25.5 -4.375 25.5 -8 25 C-11.02979229 22.54988736 -12.76736631 19.69790108 -14 16 C-14.32447659 10.1594214 -13.73569204 6.47002329 -10.375 1.6875 C-6.8039375 -0.84983388 -4.33670686 -0.34418308 0 0 Z " fill="#EEE1C9" transform="translate(498,286)"/>
<path d="M0 0 C0.99 0.66 1.98 1.32 3 2 C3.33 1.67 3.66 1.34 4 1 C5.99958364 0.95919217 8.00045254 0.95745644 10 1 C10.05804281 5.41661151 10.09361104 9.83312496 10.125 14.25 C10.14175781 15.50425781 10.15851562 16.75851562 10.17578125 18.05078125 C10.18222656 19.25605469 10.18867187 20.46132813 10.1953125 21.703125 C10.20578613 22.81333008 10.21625977 23.92353516 10.22705078 25.06738281 C10.00242675 27.9686558 9.57491186 29.58401372 8 32 C4.80753745 34.2375742 1.83196688 34.32710041 -2 34.375 C-3.03125 34.40335937 -4.0625 34.43171875 -5.125 34.4609375 C-8.7075616 33.88655942 -9.87906632 32.90608702 -12 30 C-12 28.68 -12 27.36 -12 26 C-5.125 26.875 -5.125 26.875 -4 28 C-1.66702567 28.04092937 0.66705225 28.04241723 3 28 C2.67 26.68 2.34 25.36 2 24 C1.34 24.33 0.68 24.66 0 25 C-3.3125 25.375 -3.3125 25.375 -7 25 C-9.63016161 22.8272578 -11.47336894 21.05326212 -13 18 C-13.93762008 7.59395414 -13.93762008 7.59395414 -11.125 2.8125 C-7.40782986 -0.35802747 -4.84336473 -0.25491393 0 0 Z " fill="#ECE2CB" transform="translate(690,286)"/>
<path d="M0 0 C3.031875 -0.061875 6.06375 -0.12375 9.1875 -0.1875 C10.60712036 -0.22846802 10.60712036 -0.22846802 12.05541992 -0.27026367 C16.84936401 -0.3175874 20.15522761 -0.20273273 24 3 C26.45917586 6.6887638 26.81591937 9.7184429 26 14 C24.25549494 17.0220794 22.16697836 19.41651082 19 21 C16.95944995 21.07065617 14.91665743 21.08421976 12.875 21.0625 C9.966875 21.0315625 9.966875 21.0315625 7 21 C7 24.96 7 28.92 7 33 C4.69 33 2.38 33 0 33 C0 22.11 0 11.22 0 0 Z " fill="#F1E4CD" transform="translate(1058,278)"/>
<path d="M0 0 C4.516875 -0.1546875 4.516875 -0.1546875 9.125 -0.3125 C10.06230957 -0.35802002 10.99961914 -0.40354004 11.96533203 -0.45043945 C16.1538202 -0.5195785 19.16639684 -0.38191007 22.578125 2.20703125 C25.83248996 5.9600489 25.75554069 7.86359025 25.46484375 12.62109375 C24.81141747 15.96509883 23.53160249 17.75772351 21 20 C16.36297289 21.5456757 11.87528349 21.05735628 7 21 C7 24.96 7 28.92 7 33 C4.69 33 2.38 33 0 33 C0 22.11 0 11.22 0 0 Z " fill="#F5E3C7" transform="translate(719,278)"/>
<path d="M0 0 C4.516875 -0.1546875 4.516875 -0.1546875 9.125 -0.3125 C10.06230957 -0.35802002 10.99961914 -0.40354004 11.96533203 -0.45043945 C16.1538202 -0.5195785 19.16639684 -0.38191007 22.578125 2.20703125 C25.83248996 5.9600489 25.75554069 7.86359025 25.46484375 12.62109375 C24.81141747 15.96509883 23.53160249 17.75772351 21 20 C16.36297289 21.5456757 11.87528349 21.05735628 7 21 C7 24.96 7 28.92 7 33 C4.69 33 2.38 33 0 33 C0 22.11 0 11.22 0 0 Z " fill="#F5E3C7" transform="translate(410,278)"/>
<path d="M0 0 C2.4375 1 2.4375 1 4 2 C4.99 1.34 5.98 0.68 7 0 C10.65712909 -0.39895954 13.02242836 -0.59865449 16.20703125 1.3515625 C19.05555846 5.55919093 18.42136515 9.80018342 18.25 14.75 C18.23195313 15.73355469 18.21390625 16.71710938 18.1953125 17.73046875 C18.14824126 20.15463783 18.08250742 22.57682059 18 25 C15.69 25 13.38 25 11 25 C10.505 15.595 10.505 15.595 10 6 C8.35 6.33 6.7 6.66 5 7 C4.67 12.94 4.34 18.88 4 25 C1.69 25 -0.62 25 -3 25 C-3.33 19.06 -3.66 13.12 -4 7 C-5.32 6.67 -6.64 6.34 -8 6 C-9.51421001 7.51421001 -9.21309856 8.92472768 -9.31640625 11.03515625 C-9.35830078 11.84404297 -9.40019531 12.65292969 -9.44335938 13.48632812 C-9.48267578 14.33646484 -9.52199219 15.18660156 -9.5625 16.0625 C-9.60568359 16.91650391 -9.64886719 17.77050781 -9.69335938 18.65039062 C-9.79976702 20.76672037 -9.90041731 22.88333813 -10 25 C-12.31 25 -14.62 25 -17 25 C-17 17.08 -17 9.16 -17 1 C-14.33333333 1 -11.66666667 1 -9 1 C-5.97562661 -0.5121867 -3.33758466 -0.17263369 0 0 Z " fill="#EDE2C9" transform="translate(1219,286)"/>
<path d="M0 0 C3.33388318 0.16951948 4.94441987 0.43192871 7.6875 2.1875 C8.6775 1.5275 9.6675 0.8675 10.6875 0.1875 C14.85629916 -0.35289989 16.90463947 -0.3570004 20.39453125 2.0703125 C23.66962472 6.52265421 23.24672242 10.12904272 23 15.5 C22.97744141 16.43134766 22.95488281 17.36269531 22.93164062 18.32226562 C22.87292078 20.6123396 22.79086858 22.89907875 22.6875 25.1875 C20.3775 25.1875 18.0675 25.1875 15.6875 25.1875 C15.3575 19.2475 15.0275 13.3075 14.6875 7.1875 C13.3675 6.8575 12.0475 6.5275 10.6875 6.1875 C7.66656785 9.20843215 8.22073166 12.75122072 8.0625 16.8125 C8.02382813 17.61429687 7.98515625 18.41609375 7.9453125 19.2421875 C7.85096069 21.22357556 7.76813785 23.20550645 7.6875 25.1875 C5.7075 25.1875 3.7275 25.1875 1.6875 25.1875 C1.3575 19.2475 1.0275 13.3075 0.6875 7.1875 C-2.94869656 6.10665479 -2.94869656 6.10665479 -5.3125 6.1875 C-5.6425 12.4575 -5.9725 18.7275 -6.3125 25.1875 C-8.6225 25.1875 -10.9325 25.1875 -13.3125 25.1875 C-13.3125 17.2675 -13.3125 9.3475 -13.3125 1.1875 C-10.3125 1.1875 -7.3125 1.1875 -4.3125 1.1875 C-3.3125 0.1875 -3.3125 0.1875 0 0 Z " fill="#EFE3CB" transform="translate(609.3125,285.8125)"/>
<path d="M0 0 C3.48221175 0.17411059 5.65214817 0.68551124 8.75 2.1875 C9.41 1.5275 10.07 0.8675 10.75 0.1875 C14.57248467 -0.24523411 16.99600211 -0.18841249 20.4609375 1.5390625 C24.0178566 5.65440576 23.28951013 9.69181985 23.0625 14.9375 C23.03994141 15.92105469 23.01738281 16.90460938 22.99414062 17.91796875 C22.93528805 20.3426947 22.85313431 22.76431983 22.75 25.1875 C20.44 25.1875 18.13 25.1875 15.75 25.1875 C15.42 19.2475 15.09 13.3075 14.75 7.1875 C13.43 6.8575 12.11 6.5275 10.75 6.1875 C9.23578999 7.70171001 9.53690144 9.11222768 9.43359375 11.22265625 C9.39169922 12.03154297 9.34980469 12.84042969 9.30664062 13.67382812 C9.26732422 14.52396484 9.22800781 15.37410156 9.1875 16.25 C9.14431641 17.10400391 9.10113281 17.95800781 9.05664062 18.83789062 C8.95023298 20.95422037 8.84958269 23.07083813 8.75 25.1875 C6.44 25.1875 4.13 25.1875 1.75 25.1875 C1.42 19.2475 1.09 13.3075 0.75 7.1875 C-0.57 6.8575 -1.89 6.5275 -3.25 6.1875 C-6.27093215 9.20843215 -5.71676834 12.75122072 -5.875 16.8125 C-5.91367187 17.61429687 -5.95234375 18.41609375 -5.9921875 19.2421875 C-6.08653931 21.22357556 -6.16936215 23.20550645 -6.25 25.1875 C-8.23 25.1875 -10.21 25.1875 -12.25 25.1875 C-12.25 17.2675 -12.25 9.3475 -12.25 1.1875 C-9.58333333 1.1875 -6.91666667 1.1875 -4.25 1.1875 C-3.25 0.1875 -3.25 0.1875 0 0 Z " fill="#F2E3C8" transform="translate(568.25,285.8125)"/>
<path d="M0 0 C3.49522239 1.71583645 5.38570908 2.96687436 7.375 6.3125 C8.53435213 11.29771416 8.66190472 15.24507413 6.25 19.8125 C4.04779672 22.93228798 3.37806913 23.6945557 0 25 C-4.71027588 25.73651586 -8.17015542 25.42246633 -12.4375 23.25 C-15.3909314 20.65674316 -16.72712602 18.74512429 -17.3359375 14.8515625 C-17.43145621 9.4069959 -16.73277479 6.25121573 -13 2 C-8.78676952 -0.5649583 -4.80918576 -0.67511967 0 0 Z " fill="#EAE0CA" transform="translate(473,286)"/>
<path d="M0 0 C3.8026029 2.0050088 5.61790841 3.42686262 8 7 C8.6772783 12.08746258 8.82467221 16.55682364 6.25 21.0625 C1.99370688 24.7276413 -1.30645937 25.39990179 -6.81640625 25.24609375 C-9.93381716 24.89475764 -11.64829161 24.07503682 -14 22 C-16.88402967 17.62423085 -17.64987517 14.19900136 -17 9 C-12.85223264 1.29700348 -8.65429737 -1.37988797 0 0 Z " fill="#EAE0CA" transform="translate(1172,286)"/>
<path d="M0 0 C2.79296875 1.36328125 2.79296875 1.36328125 5 4 C5.75550102 7.5785489 5.79064043 11.10188136 5.8125 14.75 C5.83763672 15.73355469 5.86277344 16.71710938 5.88867188 17.73046875 C5.94749661 20.15404766 5.98380919 22.57582278 6 25 C3.69 25 1.38 25 -1 25 C-1.33 24.34 -1.66 23.68 -2 23 C-2.99 23.66 -3.98 24.32 -5 25 C-10.11675127 25.56852792 -10.11675127 25.56852792 -13 25 C-15.75783074 22.5868981 -16.77982432 21.00302254 -17.5625 17.4375 C-17 15 -17 15 -15.125 12.8125 C-10.91893855 10.37298436 -6.76958225 9.70386068 -2 9 C-2 8.01 -2 7.02 -2 6 C-4.91652174 5.83318891 -4.91652174 5.83318891 -8 6 C-8.66 6.66 -9.32 7.32 -10 8 C-12.625 8.125 -12.625 8.125 -15 8 C-15.33 7.01 -15.66 6.02 -16 5 C-11.81663122 -0.77016384 -6.90009359 -1.4375195 0 0 Z " fill="#EEDFC7" transform="translate(1116,286)"/>
<path d="M0 0 C2.76171875 1.359375 2.76171875 1.359375 5 4 C5.75830743 7.57781159 5.79064178 11.10210604 5.8125 14.75 C5.83763672 15.73355469 5.86277344 16.71710938 5.88867188 17.73046875 C5.94749661 20.15404766 5.98380919 22.57582278 6 25 C3.69 25 1.38 25 -1 25 C-1 24.34 -1 23.68 -1 23 C-1.515625 23.33 -2.03125 23.66 -2.5625 24 C-6.6418837 25.67359331 -10.3581163 25.67359331 -14.4375 24 C-16.54263621 21.30542565 -16.48060651 19.27997052 -16.53125 15.9375 C-15.76250636 13.13384674 -14.48559436 12.43302124 -12 11 C-9.421875 10.26953125 -9.421875 10.26953125 -6.75 9.8125 C-5.85796875 9.65394531 -4.9659375 9.49539063 -4.046875 9.33203125 C-3.37140625 9.22246094 -2.6959375 9.11289062 -2 9 C-2.33 8.01 -2.66 7.02 -3 6 C-4.65 6 -6.3 6 -8 6 C-8.33 6.66 -8.66 7.32 -9 8 C-10.65 8 -12.3 8 -14 8 C-14.33 6.68 -14.66 5.36 -15 4 C-10.71111173 -0.57481416 -5.98072027 -1.27090306 0 0 Z " fill="#EDE1CC" transform="translate(923,286)"/>
<path d="M0 0 C2.76171875 1.359375 2.76171875 1.359375 5 4 C5.75830743 7.57781159 5.79064178 11.10210604 5.8125 14.75 C5.83763672 15.73355469 5.86277344 16.71710938 5.88867188 17.73046875 C5.94749661 20.15404766 5.98380919 22.57582278 6 25 C3.69 25 1.38 25 -1 25 C-1 24.34 -1 23.68 -1 23 C-1.515625 23.33 -2.03125 23.66 -2.5625 24 C-6.6418837 25.67359331 -10.3581163 25.67359331 -14.4375 24 C-16.54263621 21.30542565 -16.48060651 19.27997052 -16.53125 15.9375 C-15.76250636 13.13384674 -14.48559436 12.43302124 -12 11 C-9.421875 10.26953125 -9.421875 10.26953125 -6.75 9.8125 C-5.85796875 9.65394531 -4.9659375 9.49539063 -4.046875 9.33203125 C-3.37140625 9.22246094 -2.6959375 9.11289062 -2 9 C-2.33 8.01 -2.66 7.02 -3 6 C-4.65 6 -6.3 6 -8 6 C-8.33 6.66 -8.66 7.32 -9 8 C-10.65 8 -12.3 8 -14 8 C-14.33 6.68 -14.66 5.36 -15 4 C-10.71111173 -0.57481416 -5.98072027 -1.27090306 0 0 Z " fill="#EDE1CC" transform="translate(885,286)"/>
<path d="M0 0 C2.296875 0.97265625 2.296875 0.97265625 4 3 C4.61452375 5.97129804 4.651608 8.91060813 4.6875 11.9375 C4.72978851 13.55087068 4.77525425 15.16416188 4.82421875 16.77734375 C4.83541748 17.49140381 4.84661621 18.20546387 4.8581543 18.94116211 C5.00433962 21.06298791 5.42436151 22.95638277 6 25 C3.69 25 1.38 25 -1 25 C-1.33 24.34 -1.66 23.68 -2 23 C-2.99 23.66 -3.98 24.32 -5 25 C-11.97763578 25.66453674 -11.97763578 25.66453674 -15.5 23.375 C-17.45562482 20.27859404 -17.60024477 18.60146865 -17 15 C-15.6875 12.75 -15.6875 12.75 -13 11 C-9.3629869 10.07897222 -5.71797204 9.48718254 -2 9 C-2.66 8.01 -3.32 7.02 -4 6 C-7.29075996 6.37904208 -7.29075996 6.37904208 -10 8 C-11.66617115 8.04063832 -13.33388095 8.042721 -15 8 C-15.33 7.01 -15.66 6.02 -16 5 C-11.77029742 -0.83407253 -6.95911224 -1.24455062 0 0 Z " fill="#EDE2CD" transform="translate(764,286)"/>
<path d="M0 0 C2.296875 0.97265625 2.296875 0.97265625 4 3 C4.61452375 5.97129804 4.651608 8.91060813 4.6875 11.9375 C4.72978851 13.55087068 4.77525425 15.16416188 4.82421875 16.77734375 C4.83541748 17.49140381 4.84661621 18.20546387 4.8581543 18.94116211 C5.00433962 21.06298791 5.42436151 22.95638277 6 25 C3.69 25 1.38 25 -1 25 C-1.33 24.34 -1.66 23.68 -2 23 C-2.99 23.66 -3.98 24.32 -5 25 C-11.97763578 25.66453674 -11.97763578 25.66453674 -15.5 23.375 C-17.45562482 20.27859404 -17.60024477 18.60146865 -17 15 C-15.6875 12.75 -15.6875 12.75 -13 11 C-9.3629869 10.07897222 -5.71797204 9.48718254 -2 9 C-2.66 8.01 -3.32 7.02 -4 6 C-7.29075996 6.37904208 -7.29075996 6.37904208 -10 8 C-11.66617115 8.04063832 -13.33388095 8.042721 -15 8 C-15.33 7.01 -15.66 6.02 -16 5 C-11.77029742 -0.83407253 -6.95911224 -1.24455062 0 0 Z " fill="#EDE2CD" transform="translate(546,286)"/>
<path d="M0 0 C1.98 0 3.96 0 6 0 C6.33 3.3 6.66 6.6 7 10 C7.99 9.34 8.98 8.68 10 8 C14.16879916 7.45960011 16.21713947 7.4554996 19.70703125 9.8828125 C22.98212472 14.33515421 22.55922242 17.94154272 22.3125 23.3125 C22.28994141 24.24384766 22.26738281 25.17519531 22.24414062 26.13476562 C22.18542078 28.4248396 22.10336858 30.71157875 22 33 C19.69 33 17.38 33 15 33 C14.67 27.06 14.34 21.12 14 15 C12.35 14.67 10.7 14.34 9 14 C6.51955685 17.72066472 6.55618827 20.86540474 6.375 25.1875 C6.33632813 25.93708984 6.29765625 26.68667969 6.2578125 27.45898438 C6.16371784 29.30559199 6.08077681 31.1527619 6 33 C4.02 33 2.04 33 0 33 C0 22.11 0 11.22 0 0 Z " fill="#F4E6CE" transform="translate(843,278)"/>
<path d="M0 0 C1.98 0 3.96 0 6 0 C6.33 3.3 6.66 6.6 7 10 C7.99 9.34 8.98 8.68 10 8 C14.16879916 7.45960011 16.21713947 7.4554996 19.70703125 9.8828125 C22.98212472 14.33515421 22.55922242 17.94154272 22.3125 23.3125 C22.28994141 24.24384766 22.26738281 25.17519531 22.24414062 26.13476562 C22.18542078 28.4248396 22.10336858 30.71157875 22 33 C19.69 33 17.38 33 15 33 C14.67 27.06 14.34 21.12 14 15 C12.35 14.67 10.7 14.34 9 14 C5.97906785 17.02093215 6.53323166 20.56372072 6.375 24.625 C6.33632813 25.42679687 6.29765625 26.22859375 6.2578125 27.0546875 C6.16346069 29.03607556 6.08063785 31.01800645 6 33 C4.02 33 2.04 33 0 33 C0 22.11 0 11.22 0 0 Z " fill="#F5E5CA" transform="translate(790,278)"/>
<path d="M0 0 C3.0625 1.3125 3.0625 1.3125 5 3 C5.33 3.99 5.66 4.98 6 6 C1.02936879 6.91297308 -3.02936879 6.91297308 -8 6 C-8.33 6.66 -8.66 7.32 -9 8 C-8.16855469 8.19335938 -7.33710937 8.38671875 -6.48046875 8.5859375 C-5.39378906 8.84632813 -4.30710937 9.10671875 -3.1875 9.375 C-2.10855469 9.63023437 -1.02960937 9.88546875 0.08203125 10.1484375 C3 11 3 11 6 13 C6.66799205 20.0139165 6.66799205 20.0139165 4.6875 22.9375 C0.2502592 25.73131828 -4.94567669 25.73659906 -10 25 C-12.51786838 23.58524488 -13.98305102 22.12310419 -16 20 C-15.505 18.515 -15.505 18.515 -15 17 C-12.125 16.875 -12.125 16.875 -9 17 C-8.34 17.66 -7.68 18.32 -7 19 C-4.41645782 19.16687448 -4.41645782 19.16687448 -2 19 C-1.67 18.34 -1.34 17.68 -1 17 C-1.67546875 16.81824219 -2.3509375 16.63648438 -3.046875 16.44921875 C-3.93890625 16.19785156 -4.8309375 15.94648438 -5.75 15.6875 C-6.63171875 15.44386719 -7.5134375 15.20023437 -8.421875 14.94921875 C-11.11748509 13.95674413 -12.9116806 12.96885032 -15 11 C-15.5625 7.5625 -15.5625 7.5625 -15 4 C-11.114302 -1.05140739 -5.87134885 -0.80984122 0 0 Z " fill="#EEE1CB" transform="translate(831,286)"/>
<path d="M0 0 C2.234375 1.35546875 2.234375 1.35546875 4 4 C4.49214375 7.59517124 4.37532223 11.13011567 4.25 14.75 C4.23195313 15.73355469 4.21390625 16.71710938 4.1953125 17.73046875 C4.14824126 20.15463783 4.08250742 22.57682059 4 25 C2.02 25 0.04 25 -2 25 C-2 19.06 -2 13.12 -2 7 C-4.97 6.505 -4.97 6.505 -8 6 C-11.02093215 9.02093215 -10.46676834 12.56372072 -10.625 16.625 C-10.66367187 17.42679687 -10.70234375 18.22859375 -10.7421875 19.0546875 C-10.83653931 21.03607556 -10.91936215 23.01800645 -11 25 C-13.31 25 -15.62 25 -18 25 C-18 17.08 -18 9.16 -18 1 C-16.02 1 -14.04 1 -12 1 C-12 1.66 -12 2.32 -12 3 C-11.505 2.505 -11.01 2.01 -10.5 1.5 C-7.12216256 -0.52670246 -3.84893526 -0.95471636 0 0 Z " fill="#F2E5CD" transform="translate(668,286)"/>
<path d="M0 0 C1.98 0 3.96 0 6 0 C6.06058594 1.13179688 6.12117187 2.26359375 6.18359375 3.4296875 C6.26799917 4.91147145 6.35264717 6.3932416 6.4375 7.875 C6.47681641 8.62136719 6.51613281 9.36773437 6.55664062 10.13671875 C6.71573624 14.19986864 6.71573624 14.19986864 8 18 C9.98 17.67 11.96 17.34 14 17 C14.33 11.39 14.66 5.78 15 0 C17.31 0 19.62 0 22 0 C22 7.92 22 15.84 22 24 C20.02 24 18.04 24 16 24 C16 23.34 16 22.68 16 22 C15.505 22.33 15.01 22.66 14.5 23 C11.06800912 24.37279635 7.63131767 24.83690524 4 24 C1.765625 22.6171875 1.765625 22.6171875 0 20 C-0.48941696 16.57028144 -0.37582443 13.20533252 -0.25 9.75 C-0.23195313 8.81414062 -0.21390625 7.87828125 -0.1953125 6.9140625 C-0.14825673 4.60832985 -0.08253713 2.30469055 0 0 Z " fill="#EFE6D1" transform="translate(982,287)"/>
<path d="M0 0 C6.6 0 13.2 0 20 0 C20 6 20 6 18.609375 7.94140625 C17.99578125 8.47636719 17.3821875 9.01132812 16.75 9.5625 C13.85909461 12.20125746 11.37218931 14.86871011 9 18 C12.96 18.33 16.92 18.66 21 19 C21 20.65 21 22.3 21 24 C13.74 24 6.48 24 -1 24 C-1 17.47075261 -0.80611432 17.06643766 3.4375 12.75 C6.59969859 9.64610024 6.59969859 9.64610024 9 6 C6.03 5.67 3.06 5.34 0 5 C0 3.35 0 1.7 0 0 Z " fill="#F3E5CD" transform="translate(1021,287)"/>
<path d="M0 0 C4.51785714 1.25496032 4.51785714 1.25496032 6.375 3.9375 C7.39202117 6.9885635 7.54082083 9.17949061 7.5625 12.375 C7.57667969 13.32246094 7.59085938 14.26992188 7.60546875 15.24609375 C7.37114518 17.98251644 6.77201383 19.60178123 5.375 21.9375 C3.065 20.9475 0.755 19.9575 -1.625 18.9375 C-1.625 20.2575 -1.625 21.5775 -1.625 22.9375 C-0.965 23.5975 -0.305 24.2575 0.375 24.9375 C-1.8125 25.3125 -1.8125 25.3125 -4.625 24.9375 C-8.52134443 20.95260229 -10.50073926 18.17419328 -10.8125 12.5625 C-10.55836297 7.64918403 -9.77565839 5.18678626 -6.4375 1.5625 C-3.625 -0.0625 -3.625 -0.0625 0 0 Z " fill="#0A0807" transform="translate(962.625,282.0625)"/>
<path d="M0 0 C1.21236328 0.02707031 1.21236328 0.02707031 2.44921875 0.0546875 C3.37154297 0.08949219 3.37154297 0.08949219 4.3125 0.125 C4.3125 1.775 4.3125 3.425 4.3125 5.125 C2.6625 5.455 1.0125 5.785 -0.6875 6.125 C-1.0175 7.115 -1.3475 8.105 -1.6875 9.125 C-0.0375 9.125 1.6125 9.125 3.3125 9.125 C3.3125 10.775 3.3125 12.425 3.3125 14.125 C1.6625 14.125 0.0125 14.125 -1.6875 14.125 C-1.6875 20.395 -1.6875 26.665 -1.6875 33.125 C-3.9975 33.125 -6.3075 33.125 -8.6875 33.125 C-8.6875 26.855 -8.6875 20.585 -8.6875 14.125 C-9.6775 14.125 -10.6675 14.125 -11.6875 14.125 C-11.6875 12.475 -11.6875 10.825 -11.6875 9.125 C-10.6975 9.125 -9.7075 9.125 -8.6875 9.125 C-8.5328125 7.454375 -8.5328125 7.454375 -8.375 5.75 C-8.148125 4.55375 -7.92125 3.3575 -7.6875 2.125 C-4.48369983 -0.01086678 -3.66810033 -0.10632175 0 0 Z " fill="#EAE2CD" transform="translate(1150.6875,277.875)"/>
<path d="M0 0 C0 2.97 0 5.94 0 9 C1.32 9 2.64 9 4 9 C4 10.65 4 12.3 4 14 C2.68 14 1.36 14 0 14 C0 18.62 0 23.24 0 28 C1.32 27.67 2.64 27.34 4 27 C4 28.98 4 30.96 4 33 C-3.36603774 33.36226415 -3.36603774 33.36226415 -5.75 32 C-7.74250219 28.81199649 -7.31123006 25.44508765 -7.1875 21.8125 C-7.16719727 20.68811523 -7.16719727 20.68811523 -7.14648438 19.54101562 C-7.11118539 17.69370233 -7.05737917 15.84675934 -7 14 C-7.99 14 -8.98 14 -10 14 C-10 12.35 -10 10.7 -10 9 C-9.01 9 -8.02 9 -7 9 C-7.103125 8.2575 -7.20625 7.515 -7.3125 6.75 C-7 4 -7 4 -4.625 1.6875 C-2 0 -2 0 0 0 Z " fill="#EFE2C8" transform="translate(1134,278)"/>
<path d="M0 0 C0 2.97 0 5.94 0 9 C1.65 9 3.3 9 5 9 C5 10.65 5 12.3 5 14 C3.35 14 1.7 14 0 14 C0.33 18.29 0.66 22.58 1 27 C2.32 27 3.64 27 5 27 C5.042721 28.66611905 5.04063832 30.33382885 5 32 C3.10511048 33.89488952 0.42860854 33.18019112 -2.08984375 33.23046875 C-4 33 -4 33 -6 31 C-6.14517744 28.0906442 -6.18630796 25.280054 -6.125 22.375 C-6.11597656 21.57320313 -6.10695313 20.77140625 -6.09765625 19.9453125 C-6.07406223 17.96341477 -6.03819065 15.98167019 -6 14 C-6.99 14 -7.98 14 -9 14 C-9 12.35 -9 10.7 -9 9 C-8.01 9 -7.02 9 -6 9 C-6.103125 8.071875 -6.20625 7.14375 -6.3125 6.1875 C-6.209375 5.135625 -6.10625 4.08375 -6 3 C-2.1 0 -2.1 0 0 0 Z " fill="#F2E5CE" transform="translate(781,278)"/>
<path d="M0 0 C2.31 0 4.62 0 7 0 C7 10.89 7 21.78 7 33 C4.69 33 2.38 33 0 33 C0 22.11 0 11.22 0 0 Z " fill="#EEE0C3" transform="translate(896,278)"/>
<path d="M0 0 C2.4375 0.9375 2.4375 0.9375 4 3 C4.50241849 6.06589467 4.61350778 8.94904237 4 12 C2.59765625 13.78125 2.59765625 13.78125 1 15 C0.34 15 -0.32 15 -1 15 C-1 15.66 -1 16.32 -1 17 C0.65 17.33 2.3 17.66 4 18 C4 18.33 4 18.66 4 19 C1.69 19 -0.62 19 -3 19 C-3.2475 18.360625 -3.495 17.72125 -3.75 17.0625 C-4.78826429 14.82450832 -4.78826429 14.82450832 -6.9375 14.4375 C-7.9584375 14.2209375 -7.9584375 14.2209375 -9 14 C-10.75 12.8125 -10.75 12.8125 -12 11 C-12.5 8.125 -12.5 8.125 -12 5 C-8.52074434 0.15012847 -5.8769667 -0.85483152 0 0 Z " fill="#D8E5E8" transform="translate(853,510)"/>
<path d="M0 0 C1.4540625 0.0309375 1.4540625 0.0309375 2.9375 0.0625 C3.2675 1.0525 3.5975 2.0425 3.9375 3.0625 C1.9375 6.0625 1.9375 6.0625 -0.625 6.625 C-1.429375 6.769375 -2.23375 6.91375 -3.0625 7.0625 C-4.648369 10.234238 -4.44116445 13.69763822 -4.625 17.1875 C-4.66818359 17.94160156 -4.71136719 18.69570313 -4.75585938 19.47265625 C-4.8619832 21.33571888 -4.96275001 23.19908524 -5.0625 25.0625 C-7.3725 25.0625 -9.6825 25.0625 -12.0625 25.0625 C-12.0625 17.1425 -12.0625 9.2225 -12.0625 1.0625 C-9.4225 1.0625 -6.7825 1.0625 -4.0625 1.0625 C-3.0625 0.0625 -3.0625 0.0625 0 0 Z " fill="#E7E0CC" transform="translate(1196.0625,285.9375)"/>
<path d="M0 0 C1.4540625 0.0309375 1.4540625 0.0309375 2.9375 0.0625 C3.2675 1.0525 3.5975 2.0425 3.9375 3.0625 C1.9375 6.0625 1.9375 6.0625 -0.625 6.625 C-1.429375 6.769375 -2.23375 6.91375 -3.0625 7.0625 C-4.648369 10.234238 -4.44116445 13.69763822 -4.625 17.1875 C-4.66818359 17.94160156 -4.71136719 18.69570313 -4.75585938 19.47265625 C-4.8619832 21.33571888 -4.96275001 23.19908524 -5.0625 25.0625 C-7.3725 25.0625 -9.6825 25.0625 -12.0625 25.0625 C-12.0625 17.1425 -12.0625 9.2225 -12.0625 1.0625 C-9.4225 1.0625 -6.7825 1.0625 -4.0625 1.0625 C-3.0625 0.0625 -3.0625 0.0625 0 0 Z " fill="#E7E0CC" transform="translate(451.0625,285.9375)"/>
<path d="M0 0 C1.2065625 0.0309375 1.2065625 0.0309375 2.4375 0.0625 C3.5625 3.8125 3.5625 3.8125 2.4375 6.0625 C0.4575 6.7225 -1.5225 7.3825 -3.5625 8.0625 C-3.8925 13.6725 -4.2225 19.2825 -4.5625 25.0625 C-6.8725 25.0625 -9.1825 25.0625 -11.5625 25.0625 C-11.5625 17.1425 -11.5625 9.2225 -11.5625 1.0625 C-8.89583333 1.0625 -6.22916667 1.0625 -3.5625 1.0625 C-2.5625 0.0625 -2.5625 0.0625 0 0 Z " fill="#F1E3C6" transform="translate(524.5625,285.9375)"/>
<path d="M0 0 C1.98 0 3.96 0 6 0 C6 10.89 6 21.78 6 33 C4.02 33 2.04 33 0 33 C0 22.11 0 11.22 0 0 Z " fill="#FAEBD0" transform="translate(1089,278)"/>
<path d="M0 0 C2.31 0 4.62 0 7 0 C7 7.92 7 15.84 7 24 C4.69 24 2.38 24 0 24 C0 16.08 0 8.16 0 0 Z " fill="#EEE0C3" transform="translate(1010,287)"/>
<path d="M0 0 C5 1 5 1 6.36328125 2.62890625 C7.2421875 4.41927083 8.12109375 6.20963542 9 8 C9.33 5.36 9.66 2.72 10 0 C10.99 0 11.98 0 13 0 C13 5.61 13 11.22 13 17 C11.68 17 10.36 17 9 17 C7.02 13.535 7.02 13.535 5 10 C4.67 12.31 4.34 14.62 4 17 C2.68 17 1.36 17 0 17 C0 11.39 0 5.78 0 0 Z " fill="#EC9100" transform="translate(866,372)"/>
<path d="M0 0 C1.98 0 3.96 0 6 0 C6 7.92 6 15.84 6 24 C4.02 24 2.04 24 0 24 C0 16.08 0 8.16 0 0 Z " fill="#FAEBD0" transform="translate(638,287)"/>
<path d="M0 0 C2.62527189 -0.05382106 5.24944713 -0.09358313 7.875 -0.125 C8.62136719 -0.14175781 9.36773438 -0.15851563 10.13671875 -0.17578125 C12.09194461 -0.1933959 14.04742021 -0.10320189 16 0 C18 2 18 2 18.1953125 4.3828125 C18.17210937 5.28773438 18.14890625 6.19265625 18.125 7.125 C18.10695313 8.03507812 18.08890625 8.94515625 18.0703125 9.8828125 C18.04710937 10.58148438 18.02390625 11.28015625 18 12 C16.68 12 15.36 12 14 12 C14 8.7 14 5.4 14 2 C13.01 2.495 13.01 2.495 12 3 C11.53348793 5.12576782 11.53348793 5.12576782 11.375 7.5625 C11.30023437 8.38878906 11.22546875 9.21507812 11.1484375 10.06640625 C11.09945312 10.70449219 11.05046875 11.34257812 11 12 C9.68 12 8.36 12 7 12 C7 8.7 7 5.4 7 2 C6.01 2.33 5.02 2.66 4 3 C3.67 5.97 3.34 8.94 3 12 C2.01 12 1.02 12 0 12 C0 8.04 0 4.08 0 0 Z " fill="#EB8E00" transform="translate(895,377)"/>
<path d="M0 0 C2.375 0.875 2.375 0.875 4.375 2.875 C4.87090645 5.91386862 4.82568321 8.83149737 4.375 11.875 C2.6875 14 2.6875 14 0.375 14.875 C-2.25 14.75 -2.25 14.75 -4.625 13.875 C-7.10538907 10.1544164 -7.08837203 8.27703429 -6.625 3.875 C-4.56869278 0.82861894 -3.73077528 -0.17765597 0 0 Z " fill="#0F0704" transform="translate(1168.625,291.125)"/>
<path d="M0 0 C2 2 2 2 2.375 5.875 C2.29089214 8.95334759 2.06841058 9.89611727 0.3125 12.5625 C-2 14 -2 14 -4.625 13.9375 C-7 13 -7 13 -9 10 C-9.4715494 7.28036624 -9.45839464 4.7220719 -9 2 C-6.2178907 -1.40035581 -4.02624767 -1.37740052 0 0 Z " fill="#0C0706" transform="translate(472,292)"/>
<path d="M0 0 C3.87713858 -0.07456036 7.25928354 -0.00711597 11 1 C11.33 0.67 11.66 0.34 12 0 C15 -0.125 15 -0.125 18 0 C19 1 19 1 19.09765625 3.06640625 C19.08605469 3.89011719 19.07445312 4.71382813 19.0625 5.5625 C19.05347656 6.38878906 19.04445313 7.21507812 19.03515625 8.06640625 C19.02355469 8.70449219 19.01195312 9.34257812 19 10 C15 10 11 10 7 10 C7 7.36 7 4.72 7 2 C5.68 2.33 4.36 2.66 3 3 C2.67 5.31 2.34 7.62 2 10 C1.34 10 0.68 10 0 10 C0 6.7 0 3.4 0 0 Z " fill="#FCF5EA" transform="translate(836,429)"/>
<path d="M0 0 C1.9375 1.0625 1.9375 1.0625 3 3 C2.66666667 9.33333333 2.66666667 9.33333333 0 12 C-4.05261287 12.34490322 -5.54754176 12.30163882 -9 10 C-9.97868153 7.13923862 -10.22135111 5.61297231 -9.1875 2.75 C-6.83448071 -0.71760738 -3.9052 -0.31879184 0 0 Z " fill="#E99200" transform="translate(766,377)"/>
<path d="M0 0 C2.4375 0.8125 2.4375 0.8125 4.4375 2.8125 C5.11560293 9.81956357 5.11560293 9.81956357 2.6875 13.375 C0.4375 14.8125 0.4375 14.8125 -1.6875 14.6875 C-3.5625 13.8125 -3.5625 13.8125 -5.5625 11.8125 C-5.86328125 9.75390625 -5.86328125 9.75390625 -5.875 7.375 C-5.89175781 6.59253906 -5.90851563 5.81007813 -5.92578125 5.00390625 C-5.31086501 1.29457278 -3.76394927 -0.27541092 0 0 Z " fill="#0D090C" transform="translate(496.5625,291.1875)"/>
<path d="M0 0 C3.92628368 0.63100988 5.09485507 1.48391449 7.5 4.5625 C4.14896563 5.67951146 1.90995239 5.299787 -1.5 4.5625 C-2.91577477 5.74674326 -2.91577477 5.74674326 -2.5625 9.125 C-2.541875 10.259375 -2.52125 11.39375 -2.5 12.5625 C0.78696233 13.36203138 2.21023192 13.65908936 5.5 12.5625 C6.16 13.2225 6.82 13.8825 7.5 14.5625 C6.5 16.0625 6.5 16.0625 4.5 17.5625 C1.4059768 17.95539183 -0.54461765 18.18687655 -3.5 17.5625 C-6.76104325 14.87213932 -7.4034571 13.23830027 -8 9.0625 C-7.21014765 3.53353357 -5.66832524 0.91098084 0 0 Z " fill="#ED9300" transform="translate(747.5,371.4375)"/>
<path d="M0 0 C0.12375 0.639375 0.2475 1.27875 0.375 1.9375 C0.58125 2.618125 0.7875 3.29875 1 4 C1.66 4.33 2.32 4.66 3 5 C2.34 5 1.68 5 1 5 C1 7.64 1 10.28 1 13 C1.66 13.33 2.32 13.66 3 14 C1.34385343 14.38218767 -0.32457024 14.71395102 -2 15 C-3.96822886 13.03177114 -3.66248381 9.65191291 -4 7 C-5.65 6.67 -7.3 6.34 -9 6 C-8.67 8.97 -8.34 11.94 -8 15 C-9.98 15 -11.96 15 -14 15 C-14 11.37 -14 7.74 -14 4 C-9.84960938 3.75585938 -9.84960938 3.75585938 -5.69921875 3.51171875 C-2.75615543 2.95377187 -1.81817001 2.31459868 0 0 Z " fill="#DCECF2" transform="translate(832,510)"/>
<path d="M0 0 C0.78375 0.2475 1.5675 0.495 2.375 0.75 C3.53843227 3.07686453 3.57395988 4.59721413 3.625 7.1875 C3.66367187 8.36119141 3.66367187 8.36119141 3.703125 9.55859375 C3.375 11.75 3.375 11.75 2.0234375 13.55078125 C0.375 14.75 0.375 14.75 -2.25 14.5 C-4.625 13.75 -4.625 13.75 -5.625 12.75 C-5.77591913 10.94187276 -5.84669008 9.12669383 -5.875 7.3125 C-5.90078125 6.32378906 -5.9265625 5.33507812 -5.953125 4.31640625 C-5.84484375 3.46949219 -5.7365625 2.62257813 -5.625 1.75 C-2.625 -0.25 -2.625 -0.25 0 0 Z " fill="#0A0604" transform="translate(689.625,291.25)"/>
<path d="M0 0 C7.42857143 -0.28571429 7.42857143 -0.28571429 11 2 C11.1875 5.375 11.1875 5.375 11 9 C7.91111478 11.05925681 7.29064073 11.2390374 3.8125 11.125 C1.9253125 11.063125 1.9253125 11.063125 0 11 C0 7.37 0 3.74 0 0 Z " fill="#0C0406" transform="translate(1065,283)"/>
<path d="M0 0 C7.38804781 -0.36334661 7.38804781 -0.36334661 10 1.1875 C11.36703913 3.66525842 11.41826612 5.21155919 11 8 C10 9.8125 10 9.8125 8 11 C5.28125957 11.24667073 2.74116148 11.13481122 0 11 C0 7.37 0 3.74 0 0 Z " fill="#030509" transform="translate(726,283)"/>
<path d="M0 0 C7.38804781 -0.36334661 7.38804781 -0.36334661 10 1.1875 C11.36703913 3.66525842 11.41826612 5.21155919 11 8 C10 9.8125 10 9.8125 8 11 C5.28125957 11.24667073 2.74116148 11.13481122 0 11 C0 7.37 0 3.74 0 0 Z " fill="#030509" transform="translate(417,283)"/>
<path d="M0 0 C0.8971875 0.309375 0.8971875 0.309375 1.8125 0.625 C0.8225 0.625 -0.1675 0.625 -1.1875 0.625 C-1.1875 1.285 -1.1875 1.945 -1.1875 2.625 C-2.40663086 3.70491211 -2.40663086 3.70491211 -3.65039062 4.80664062 C-6.83523587 8.34454031 -6.80808195 10.02315893 -6.78125 14.71875 C-6.78129028 15.38789429 -6.78133057 16.05703857 -6.78137207 16.74645996 C-6.77603279 18.15512533 -6.75851758 19.56379154 -6.72949219 20.97216797 C-6.68761513 23.11909748 -6.68842865 25.2628868 -6.6953125 27.41015625 C-6.67592406 37.47488523 -6.67592406 37.47488523 -1.1875 45.625 C-2.1775 46.12 -2.1775 46.12 -3.1875 46.625 C-7.10378425 42.90955084 -9.05895128 40.94809707 -9.36450195 35.42626953 C-9.41884743 31.95119024 -9.46401365 28.47689477 -9.48266602 25.00146484 C-9.49419518 23.50397296 -9.51466217 22.00652248 -9.54418945 20.50927734 C-9.586927 18.34183932 -9.6030411 16.17561987 -9.61328125 14.0078125 C-9.62786377 12.71246582 -9.64244629 11.41711914 -9.6574707 10.08251953 C-9.10843364 6.04331807 -8.03772577 4.47876803 -5.1875 1.625 C-2.1875 -0.375 -2.1875 -0.375 0 0 Z " fill="#F6F6F6" transform="translate(754.1875,494.375)"/>
<path d="M0 0 C2.33294775 -0.04241723 4.66702567 -0.04092937 7 0 C8.73956658 1.73956658 8.37190386 4.1936622 8.5625 6.5625 C8.64628906 7.57441406 8.73007812 8.58632813 8.81640625 9.62890625 C8.87699219 10.41136719 8.93757812 11.19382812 9 12 C7.35425434 12.02688151 5.70838587 12.04634123 4.0625 12.0625 C3.14597656 12.07410156 2.22945312 12.08570313 1.28515625 12.09765625 C-1 12 -1 12 -2 11 C-2.04063832 9.33382885 -2.042721 7.66611905 -2 6 C-0.02 5.01 1.96 4.02 4 3 C2.02 3.33 0.04 3.66 -2 4 C-1.34 2.68 -0.68 1.36 0 0 Z " fill="#D38300" transform="translate(884,377)"/>
<path d="M0 0 C2.33294775 -0.04241723 4.66702567 -0.04092937 7 0 C8.73956658 1.73956658 8.37190386 4.1936622 8.5625 6.5625 C8.64628906 7.57441406 8.73007812 8.58632813 8.81640625 9.62890625 C8.87699219 10.41136719 8.93757812 11.19382812 9 12 C7.35425434 12.02688151 5.70838587 12.04634123 4.0625 12.0625 C3.14597656 12.07410156 2.22945312 12.08570313 1.28515625 12.09765625 C-1 12 -1 12 -2 11 C-2.04063832 9.33382885 -2.042721 7.66611905 -2 6 C-0.02 5.01 1.96 4.02 4 3 C2.02 3.33 0.04 3.66 -2 4 C-1.34 2.68 -0.68 1.36 0 0 Z " fill="#D38300" transform="translate(827,377)"/>
<path d="M0 0 C2.25 -0.3125 2.25 -0.3125 5 0 C7.96957621 2.8258433 8.93112393 4.51968691 9.51757812 8.609375 C9.54377474 9.98934223 9.54716355 11.36987589 9.53125 12.75 C9.5350769 13.48573242 9.53890381 14.22146484 9.54284668 14.97949219 C9.54555903 16.52931086 9.53824519 18.07917584 9.52148438 19.62890625 C9.50006133 21.99323143 9.52130511 24.35451866 9.546875 26.71875 C9.5442316 28.22917333 9.53910636 29.73959479 9.53125 31.25 C9.53934692 31.9522168 9.54744385 32.65443359 9.55578613 33.37792969 C9.46482023 38.16976909 8.44821823 40.67370426 5 44 C3.515 44.495 3.515 44.495 2 45 C1.34 44.34 0.68 43.68 0 43 C0.804375 42.566875 1.60875 42.13375 2.4375 41.6875 C5.27846354 40.19525998 5.27846354 40.19525998 6 37 C6.22778819 32.58539577 6.22826353 28.16851537 6.24023438 23.7487793 C6.24995011 21.57366844 6.28099056 19.399499 6.3125 17.22460938 C6.31902967 15.83854726 6.32428028 14.45247841 6.328125 13.06640625 C6.3374707 11.80771729 6.34681641 10.54902832 6.35644531 9.25219727 C5.97349906 5.75820619 5.43917631 4.46311081 3 2 C2.01 1.34 1.02 0.68 0 0 Z " fill="#F2F2F2" transform="translate(919,496)"/>
<path d="M0 0 C3.0625 0.3125 3.0625 0.3125 4.9375 1.5625 C6.0625 3.3125 6.0625 3.3125 6.0625 7.3125 C3.4225 7.3125 0.7825 7.3125 -1.9375 7.3125 C-1.6075 7.9725 -1.2775 8.6325 -0.9375 9.3125 C1.0425 8.9825 3.0225 8.6525 5.0625 8.3125 C4.4025 9.6325 3.7425 10.9525 3.0625 12.3125 C0.1875 12.4375 0.1875 12.4375 -2.9375 12.3125 C-4.9375 10.3125 -4.9375 10.3125 -5.203125 8.4375 C-5.19796875 7.73625 -5.1928125 7.035 -5.1875 6.3125 C-5.19265625 5.61125 -5.1978125 4.91 -5.203125 4.1875 C-4.71881191 0.76881939 -3.24057423 0.34474194 0 0 Z " fill="#F19900" transform="translate(919.9375,376.6875)"/>
<path d="M0 0 C3.0625 0.3125 3.0625 0.3125 4.9375 1.5625 C6.0625 3.3125 6.0625 3.3125 6.0625 7.3125 C3.4225 7.3125 0.7825 7.3125 -1.9375 7.3125 C-1.6075 7.9725 -1.2775 8.6325 -0.9375 9.3125 C1.0425 8.9825 3.0225 8.6525 5.0625 8.3125 C4.4025 9.6325 3.7425 10.9525 3.0625 12.3125 C0.1875 12.4375 0.1875 12.4375 -2.9375 12.3125 C-4.9375 10.3125 -4.9375 10.3125 -5.203125 8.4375 C-5.19796875 7.73625 -5.1928125 7.035 -5.1875 6.3125 C-5.19265625 5.61125 -5.1978125 4.91 -5.203125 4.1875 C-4.71881191 0.76881939 -3.24057423 0.34474194 0 0 Z " fill="#F19900" transform="translate(796.9375,376.6875)"/>
<path d="M0 0 C1.32 0 2.64 0 4 0 C4 3.3 4 6.6 4 10 C6.62113708 7.37886292 8.19642667 5.17772443 10 2 C8.68 2.33 7.36 2.66 6 3 C6 2.01 6 1.02 6 0 C8.97 0 11.94 0 15 0 C13.66511872 3.59391114 12.03977277 6.75490696 10 10 C11.65 9.01 13.3 8.02 15 7 C15 8.32 15 9.64 15 11 C10.05 11 5.1 11 0 11 C0 7.37 0 3.74 0 0 Z " fill="#DFE8E8" transform="translate(872,514)"/>
<path d="M0 0 C1.134375 0.020625 2.26875 0.04125 3.4375 0.0625 C5.51962504 3.96648445 5.4375 6.67552202 5.4375 11.0625 C2.63879973 12.46185013 0.53251208 12.31515405 -2.5625 12.0625 C-4.4375 10.5625 -4.4375 10.5625 -5.5625 9.0625 C-4.2425 8.7325 -2.9225 8.4025 -1.5625 8.0625 C-2.5525 7.4025 -3.5425 6.7425 -4.5625 6.0625 C-4.8125 3.5 -4.8125 3.5 -4.5625 1.0625 C-3.5625 0.0625 -3.5625 0.0625 0 0 Z " fill="#DC8900" transform="translate(809.5625,376.9375)"/>
<path d="M0 0 C0 1.65 0 3.3 0 5 C-0.8971875 4.2575 -0.8971875 4.2575 -1.8125 3.5 C-3.97029994 1.71723582 -3.97029994 1.71723582 -7 2 C-7.33 2.66 -7.66 3.32 -8 4 C-7.05125 4.28875 -6.1025 4.5775 -5.125 4.875 C-2 6 -2 6 0 8 C0.25 10.5 0.25 10.5 0 13 C-2 15 -2 15 -4.1640625 15.1953125 C-5.38222656 15.16050781 -5.38222656 15.16050781 -6.625 15.125 C-7.44226563 15.10695313 -8.25953125 15.08890625 -9.1015625 15.0703125 C-9.72804688 15.04710937 -10.35453125 15.02390625 -11 15 C-11 13.02 -11 11.04 -11 9 C-10.34 9 -9.68 9 -9 9 C-8.67 9.99 -8.34 10.98 -8 12 C-5.98491642 12.73323796 -5.98491642 12.73323796 -4 13 C-3.67 12.01 -3.34 11.02 -3 10 C-3.969375 9.690625 -4.93875 9.38125 -5.9375 9.0625 C-9 8 -9 8 -10 7 C-10.04080783 5.00041636 -10.04254356 2.99954746 -10 1 C-6.78548731 -0.60725635 -3.56387464 -0.05748185 0 0 Z " fill="#E2E5D9" transform="translate(797,510)"/>
<path d="M0 0 C6.0546875 -0.1953125 6.0546875 -0.1953125 8 0 C10 2 10 2 10.3125 4.5 C10.1578125 5.7375 10.1578125 5.7375 10 7 C6.77208445 9.1519437 5.71599191 9.20086443 2 9 C2 10.65 2 12.3 2 14 C1.34 14 0.68 14 0 14 C0 9.38 0 4.76 0 0 Z " fill="#858790" transform="translate(683,425)"/>
<path d="M0 0 C1.65 0 3.3 0 5 0 C5.33 2.97 5.66 5.94 6 9 C6 6.03 6 3.06 6 0 C7.65 0 9.3 0 11 0 C11 3.63 11 7.26 11 11 C4.06640625 11.09765625 4.06640625 11.09765625 2 11 C0.33657163 9.33657163 0.63951903 7.2174291 0.4375 4.9375 C0.35371094 4.01839844 0.26992188 3.09929688 0.18359375 2.15234375 C0.09271484 1.08693359 0.09271484 1.08693359 0 0 Z " fill="#ECE4C3" transform="translate(859,514)"/>
<path d="M0 0 C7.71484375 -0.09765625 7.71484375 -0.09765625 10 0 C11 1 11 1 11.09765625 3.50390625 C11.08605469 4.51324219 11.07445312 5.52257812 11.0625 6.5625 C11.05347656 7.57441406 11.04445313 8.58632813 11.03515625 9.62890625 C11.02355469 10.41136719 11.01195312 11.19382812 11 12 C10.01 12 9.02 12 8 12 C7.67 9.03 7.34 6.06 7 3 C6.34 3 5.68 3 5 3 C4.67 5.97 4.34 8.94 4 12 C2.68 12 1.36 12 0 12 C0 8.04 0 4.08 0 0 Z " fill="#F59600" transform="translate(771,377)"/>
<path d="M0 0 C7.71484375 -0.09765625 7.71484375 -0.09765625 10 0 C11 1 11 1 11.09765625 3.50390625 C11.08605469 4.51324219 11.07445312 5.52257812 11.0625 6.5625 C11.05347656 7.57441406 11.04445313 8.58632813 11.03515625 9.62890625 C11.02355469 10.41136719 11.01195312 11.19382812 11 12 C10.01 12 9.02 12 8 12 C7.67 9.03 7.34 6.06 7 3 C6.34 3 5.68 3 5 3 C4.67 5.97 4.34 8.94 4 12 C2.68 12 1.36 12 0 12 C0 8.04 0 4.08 0 0 Z " fill="#E69000" transform="translate(838,377)"/>
<path d="M0 0 C3.53571429 0.53571429 3.53571429 0.53571429 5 2 C5.16796875 3.99609375 5.16796875 3.99609375 5.1875 6.4375 C5.20167969 7.24058594 5.21585938 8.04367187 5.23046875 8.87109375 C5 11 5 11 3 13 C-0.53571429 12.46428571 -0.53571429 12.46428571 -2 11 C-2.16796875 9.00390625 -2.16796875 9.00390625 -2.1875 6.5625 C-2.20167969 5.75941406 -2.21585938 4.95632813 -2.23046875 4.12890625 C-2 2 -2 2 0 0 Z " fill="#0E0A11" transform="translate(848,511)"/>
<path d="M0 0 C2.5 0.25 2.5 0.25 4.5 2.25 C4.75 5.25 4.75 5.25 4.5 8.25 C2.5 10.25 2.5 10.25 0 10.5625 C-1.2375 10.4078125 -1.2375 10.4078125 -2.5 10.25 C-4.64915785 7.02626323 -4.88286803 5.98296326 -4.5 2.25 C-2.5 0.25 -2.5 0.25 0 0 Z " fill="#918B8F" transform="translate(807.5,428.75)"/>
<path d="M0 0 C0 3.3 0 6.6 0 10 C-2.97 10 -5.94 10 -9 10 C-8.67 8.35 -8.34 6.7 -8 5 C-7.34 5 -6.68 5 -6 5 C-6 5.99 -6 6.98 -6 8 C-5.34 8 -4.68 8 -4 8 C-4 5.36 -4 2.72 -4 0 C-4.66 0 -5.32 0 -6 0 C-6 0.99 -6 1.98 -6 3 C-6.99 3 -7.98 3 -9 3 C-9 2.01 -9 1.02 -9 0 C-5.93109813 -1.53445094 -3.29905734 -0.54984289 0 0 Z " fill="#E7E8DC" transform="translate(816,515)"/>
<path d="M0 0 C0.66 0 1.32 0 2 0 C2 1.32 2 2.64 2 4 C2.66 4 3.32 4 4 4 C4 4.66 4 5.32 4 6 C3.34 6 2.68 6 2 6 C2 8.64 2 11.28 2 14 C2.66 14 3.32 14 4 14 C4 14.66 4 15.32 4 16 C2.33388095 16.042721 0.66617115 16.04063832 -1 16 C-2.71320494 14.28679506 -2.48964319 12.02761182 -2.75 9.6875 C-2.86859375 8.72199219 -2.9871875 7.75648438 -3.109375 6.76171875 C-2.9802312 3.50083771 -2.28171423 2.28714689 0 0 Z " fill="#E78F00" transform="translate(820,373)"/>
<path d="M0 0 C0.66 0 1.32 0 2 0 C2 1.32 2 2.64 2 4 C2.66 4 3.32 4 4 4 C4 4.66 4 5.32 4 6 C3.34 6 2.68 6 2 6 C2 8.64 2 11.28 2 14 C2.66 14 3.32 14 4 14 C4 14.66 4 15.32 4 16 C2.33388095 16.042721 0.66617115 16.04063832 -1 16 C-2.71320494 14.28679506 -2.48964319 12.02761182 -2.75 9.6875 C-2.86859375 8.72199219 -2.9871875 7.75648438 -3.109375 6.76171875 C-2.9802312 3.50083771 -2.28171423 2.28714689 0 0 Z " fill="#E78F00" transform="translate(787,373)"/>
<path d="M0 0 C0.66 0 1.32 0 2 0 C2 1.32 2 2.64 2 4 C2.66 4 3.32 4 4 4 C4 4.66 4 5.32 4 6 C3.34 6 2.68 6 2 6 C2 8.64 2 11.28 2 14 C2.66 14 3.32 14 4 14 C4 14.66 4 15.32 4 16 C2.35 16 0.7 16 -1 16 C-3.26865672 7.01262916 -3.26865672 7.01262916 -2.1875 2.9375 C-1 1 -1 1 0 0 Z " fill="#E69200" transform="translate(854,373)"/>
<path d="M0 0 C2.475 0.495 2.475 0.495 5 1 C5.33 2.98 5.66 4.96 6 7 C5.34 7 4.68 7 4 7 C3.67 10.3 3.34 13.6 3 17 C2.01 17 1.02 17 0 17 C0 11.39 0 5.78 0 0 Z " fill="#F2A000" transform="translate(866,372)"/>
<path d="M0 0 C2.5 0.25 2.5 0.25 4.5 2.25 C4.5 3.57 4.5 4.89 4.5 6.25 C2.19 6.25 -0.12 6.25 -2.5 6.25 C-2.5 6.91 -2.5 7.57 -2.5 8.25 C0.965 7.755 0.965 7.755 4.5 7.25 C3.51 8.735 3.51 8.735 2.5 10.25 C0 10.5625 0 10.5625 -2.5 10.25 C-4.5 8.25 -4.5 8.25 -4.75 5.25 C-4.43608753 1.48305032 -3.83691092 0.38369109 0 0 Z " fill="#A19D9E" transform="translate(877.5,428.75)"/>
<path d="M0 0 C2.5625 0.1875 2.5625 0.1875 4.5625 2.1875 C4.5625 3.5075 4.5625 4.8275 4.5625 6.1875 C2.2525 6.1875 -0.0575 6.1875 -2.4375 6.1875 C-2.4375 6.8475 -2.4375 7.5075 -2.4375 8.1875 C1.0275 7.6925 1.0275 7.6925 4.5625 7.1875 C4.5625 7.8475 4.5625 8.5075 4.5625 9.1875 C1.1875 9.8125 1.1875 9.8125 -2.4375 10.1875 C-3.0975 9.5275 -3.7575 8.8675 -4.4375 8.1875 C-3.74456522 0.28804348 -3.74456522 0.28804348 0 0 Z " fill="#A39E9D" transform="translate(749.4375,428.8125)"/>
<path d="M0 0 C3.125 0.375 3.125 0.375 6 1 C6.33 2.65 6.66 4.3 7 6 C4.69 6 2.38 6 0 6 C0 6.66 0 7.32 0 8 C3.465 7.505 3.465 7.505 7 7 C6.01 8.485 6.01 8.485 5 10 C2.5 10.3125 2.5 10.3125 0 10 C-2 8 -2 8 -2.25 5 C-2 2 -2 2 0 0 Z " fill="#9C9DA2" transform="translate(774,429)"/>
<path d="M0 0 C3.125 0.375 3.125 0.375 6 1 C6.33 2.65 6.66 4.3 7 6 C4.69 6 2.38 6 0 6 C0 6.66 0 7.32 0 8 C3.465 7.505 3.465 7.505 7 7 C6.01 8.485 6.01 8.485 5 10 C2.5 10.3125 2.5 10.3125 0 10 C-2 8 -2 8 -2.25 5 C-2 2 -2 2 0 0 Z " fill="#9C9DA2" transform="translate(701,429)"/>
<path d="M0 0 C2.375 -0.125 2.375 -0.125 5 0 C7 2 7 2 7.1953125 3.9453125 C7.13020833 5.96354167 7.06510417 7.98177083 7 10 C4.36 10 1.72 10 -1 10 C-1.33 8.68 -1.66 7.36 -2 6 C0.31 5.34 2.62 4.68 5 4 C5 3.34 5 2.68 5 2 C3.02 2.33 1.04 2.66 -1 3 C-0.67 2.01 -0.34 1.02 0 0 Z " fill="#888890" transform="translate(711,429)"/>
<path d="M0 0 C1.97909398 -0.02686553 3.95828971 -0.04633375 5.9375 -0.0625 C7.03964844 -0.07410156 8.14179687 -0.08570313 9.27734375 -0.09765625 C12 0 12 0 13 1 C13.07179964 2.51928038 13.08392007 4.04167482 13.0625 5.5625 C13.05347656 6.38878906 13.04445313 7.21507812 13.03515625 8.06640625 C13.02355469 8.70449219 13.01195312 9.34257812 13 10 C12.34 10 11.68 10 11 10 C11 7.36 11 4.72 11 2 C10.01 2.33 9.02 2.66 8 3 C7.67 5.31 7.34 7.62 7 10 C6.67 10 6.34 10 6 10 C6 7.36 6 4.72 6 2 C4.68 2 3.36 2 2 2 C2 4.64 2 7.28 2 10 C1.34 10 0.68 10 0 10 C0 6.7 0 3.4 0 0 Z " fill="#8D8D91" transform="translate(858,429)"/>
<path d="M0 0 C3.29714793 0.32971479 4.6226839 0.6226839 7 3 C7 3.99 7 4.98 7 6 C4.69 6.33 2.38 6.66 0 7 C1.98 7 3.96 7 6 7 C5.67 7.99 5.34 8.98 5 10 C2.625 10.125 2.625 10.125 0 10 C-2 8 -2 8 -2.25 5 C-2 2 -2 2 0 0 Z " fill="#9D9DA1" transform="translate(732,429)"/>
<path d="M0 0 C0.66 0.33 1.32 0.66 2 1 C2.08131463 2.43655854 2.13933559 3.8744483 2.1875 5.3125 C2.22230469 6.11300781 2.25710938 6.91351562 2.29296875 7.73828125 C2 10 2 10 0.61328125 11.79296875 C-1 13 -1 13 -3 13 C-3 13.66 -3 14.32 -3 15 C-1.35 15.33 0.3 15.66 2 16 C2 16.33 2 16.66 2 17 C-0.31 17 -2.62 17 -5 17 C-5.75 14.75 -5.75 14.75 -6 12 C-4.66666667 10.66666667 -3.33333333 9.33333333 -2 8 C-1.0648104 5.34774097 -0.55393258 2.7696629 0 0 Z " fill="#F1EEE2" transform="translate(855,512)"/>
<path d="M0 0 C0.12375 0.639375 0.2475 1.27875 0.375 1.9375 C0.684375 2.9584375 0.684375 2.9584375 1 4 C1.66 4.33 2.32 4.66 3 5 C2.34 5 1.68 5 1 5 C1 7.64 1 10.28 1 13 C1.66 13.33 2.32 13.66 3 14 C1.34385343 14.38218767 -0.32457024 14.71395102 -2 15 C-4.07739937 12.92260063 -3.80601757 9.25413555 -4.078125 6.45703125 C-4 4 -4 4 -2.0625 1.375 C-1.381875 0.92125 -0.70125 0.4675 0 0 Z " fill="#E3E7E1" transform="translate(803,510)"/>
<path d="M0 0 C0.99 0.33 1.98 0.66 3 1 C3 1.66 3 2.32 3 3 C3.99 3 4.98 3 6 3 C6 2.01 6 1.02 6 0 C6.66 0 7.32 0 8 0 C8 2.64 8 5.28 8 8 C7.34 8 6.68 8 6 8 C6 7.01 6 6.02 6 5 C3.66924071 5.95865509 3.66924071 5.95865509 2 9 C1.34 8.67 0.68 8.34 0 8 C0 5.36 0 2.72 0 0 Z " fill="#000B20" transform="translate(804,515)"/>
<path d="M0 0 C3.375 -0.125 3.375 -0.125 7 0 C9 2 9 2 9.1953125 3.9453125 C9.13020833 5.96354167 9.06510417 7.98177083 9 10 C8.34 10 7.68 10 7 10 C7 7.36 7 4.72 7 2 C5.68 2.33 4.36 2.66 3 3 C2.67 5.31 2.34 7.62 2 10 C1.34 10 0.68 10 0 10 C0 6.7 0 3.4 0 0 Z " fill="#999090" transform="translate(836,429)"/>
<path d="M0 0 C2.33294775 -0.04241723 4.66702567 -0.04092937 7 0 C8 1 8 1 8.09765625 3.06640625 C8.08605469 3.89011719 8.07445312 4.71382813 8.0625 5.5625 C8.05347656 6.38878906 8.04445313 7.21507812 8.03515625 8.06640625 C8.02355469 8.70449219 8.01195312 9.34257812 8 10 C7.34 10 6.68 10 6 10 C6 7.36 6 4.72 6 2 C4.68 2 3.36 2 2 2 C2 4.64 2 7.28 2 10 C1.34 10 0.68 10 0 10 C0 6.7 0 3.4 0 0 Z " fill="#A8998D" transform="translate(756,429)"/>
<path d="M0 0 C-0.33 0.66 -0.66 1.32 -1 2 C-1.99 2 -2.98 2 -4 2 C-1.525 2.99 -1.525 2.99 1 4 C0.67 5.65 0.34 7.3 0 9 C-1.98 9 -3.96 9 -6 9 C-6.33 8.01 -6.66 7.02 -7 6 C-4.03 6.495 -4.03 6.495 -1 7 C-1 6.34 -1 5.68 -1 5 C-2.65 4.67 -4.3 4.34 -6 4 C-6.33 2.68 -6.66 1.36 -7 0 C-4.3333581 -1.33332095 -2.83319697 -0.67102033 0 0 Z " fill="#89868D" transform="translate(727,430)"/>
<path d="M0 0 C0.66 0 1.32 0 2 0 C2 0.66 2 1.32 2 2 C2.66 2 3.32 2 4 2 C4 5.3 4 8.6 4 12 C2.68 12 1.36 12 0 12 C0 8.04 0 4.08 0 0 Z " fill="#E78E00" transform="translate(771,377)"/>
<path d="M0 0 C0.1875 2.375 0.1875 2.375 0 5 C-3 7 -3 7 -5.6875 6.625 C-6.450625 6.41875 -7.21375 6.2125 -8 6 C-8 4.68 -8 3.36 -8 2 C-2.25 0 -2.25 0 0 0 Z " fill="#201B1C" transform="translate(762,299)"/>
<path d="M0 0 C0.1875 2.375 0.1875 2.375 0 5 C-3 7 -3 7 -5.6875 6.625 C-6.450625 6.41875 -7.21375 6.2125 -8 6 C-8 4.68 -8 3.36 -8 2 C-2.25 0 -2.25 0 0 0 Z " fill="#201B1C" transform="translate(544,299)"/>
<path d="M0 0 C1.99954746 -0.04254356 4.00041636 -0.04080783 6 0 C7 1 7 1 7.09765625 3.06640625 C7.08605469 3.89011719 7.07445312 4.71382813 7.0625 5.5625 C7.05347656 6.38878906 7.04445313 7.21507812 7.03515625 8.06640625 C7.02355469 8.70449219 7.01195312 9.34257812 7 10 C4.69 10 2.38 10 0 10 C-0.33 8.68 -0.66 7.36 -1 6 C0.65 5.67 2.3 5.34 4 5 C3.01 5.66 2.02 6.32 1 7 C2.65 7.33 4.3 7.66 6 8 C6 6.02 6 4.04 6 2 C3.69 2.33 1.38 2.66 -1 3 C-0.67 2.01 -0.34 1.02 0 0 Z " fill="#87878F" transform="translate(848,429)"/>
<path d="M0 0 C1.66611905 -0.042721 3.33382885 -0.04063832 5 0 C6 1 6 1 6.09765625 3.50390625 C6.08605469 4.51324219 6.07445312 5.52257812 6.0625 6.5625 C6.05347656 7.57441406 6.04445313 8.58632813 6.03515625 9.62890625 C6.02355469 10.41136719 6.01195312 11.19382812 6 12 C5.01 12 4.02 12 3 12 C2.92652344 11.04287109 2.92652344 11.04287109 2.8515625 10.06640625 C2.77679687 9.24011719 2.70203125 8.41382813 2.625 7.5625 C2.55539062 6.73878906 2.48578125 5.91507812 2.4140625 5.06640625 C2.27742187 4.38449219 2.14078125 3.70257813 2 3 C1.34 2.67 0.68 2.34 0 2 C0 1.34 0 0.68 0 0 Z " fill="#F69E00" transform="translate(843,377)"/>
<path d="M0 0 C2.7839183 1.39195915 2.97898997 3.15575779 4 6 C4.66 4.02 5.32 2.04 6 0 C6.66 0 7.32 0 8 0 C7.54636829 1.58468677 7.08688548 3.16769924 6.625 4.75 C6.36976563 5.63171875 6.11453125 6.5134375 5.8515625 7.421875 C5.0790066 9.76080572 4.16374324 11.83442562 3 14 C2.01 14 1.02 14 0 14 C0 13.34 0 12.68 0 12 C0.99 12 1.98 12 3 12 C2.7834375 11.38511719 2.566875 10.77023437 2.34375 10.13671875 C2.0653125 9.32847656 1.786875 8.52023437 1.5 7.6875 C1.2215625 6.88699219 0.943125 6.08648437 0.65625 5.26171875 C0 3 0 3 0 0 Z " fill="#91878D" transform="translate(794,429)"/>
<path d="M0 0 C1.32 0.66 2.64 1.32 4 2 C3.34 2 2.68 2 2 2 C2 4.64 2 7.28 2 10 C2.66 10.33 3.32 10.66 4 11 C2.35 11.33 0.7 11.66 -1 12 C-1.02687279 10.18757948 -1.04633715 8.37504767 -1.0625 6.5625 C-1.07410156 5.55316406 -1.08570313 4.54382813 -1.09765625 3.50390625 C-1 1 -1 1 0 0 Z " fill="#F6EDDD" transform="translate(831,513)"/>
<path d="M0 0 C1.4540625 0.0309375 1.4540625 0.0309375 2.9375 0.0625 C2.6075 1.7125 2.2775 3.3625 1.9375 5.0625 C-2.8125 6.1875 -2.8125 6.1875 -5.0625 5.0625 C-3.9375 0.08035714 -3.9375 0.08035714 0 0 Z " fill="#151012" transform="translate(1111.0625,299.9375)"/>
<path d="M0 0 C1.32 0.33 2.64 0.66 4 1 C3.67 4.63 3.34 8.26 3 12 C2.01 12 1.02 12 0 12 C0 8.04 0 4.08 0 0 Z " fill="#F9A400" transform="translate(895,377)"/>
<path d="M0 0 C0.33 0 0.66 0 1 0 C1.1875 2.375 1.1875 2.375 1 5 C-2 7 -2 7 -4.5 6.75 C-7 6 -7 6 -10 4 C-9.36191406 3.79503906 -8.72382813 3.59007812 -8.06640625 3.37890625 C-7.24011719 3.10949219 -6.41382813 2.84007812 -5.5625 2.5625 C-4.73878906 2.29566406 -3.91507812 2.02882813 -3.06640625 1.75390625 C-1.03780412 1.17844506 -1.03780412 1.17844506 0 0 Z " fill="#140F12" transform="translate(500,308)"/>
<path d="M0 0 C0.20625 0.61875 0.4125 1.2375 0.625 1.875 C2.54775888 4.84653645 4.66594527 5.13024659 8 6 C7.67 6.66 7.34 7.32 7 8 C5.88625 7.814375 4.7725 7.62875 3.625 7.4375 C0.17431139 6.68319343 0.17431139 6.68319343 -2 8 C-2 7.34 -2 6.68 -2 6 C-3.98 6.66 -5.96 7.32 -8 8 C-8.33 7.01 -8.66 6.02 -9 5 C-6.36 5 -3.72 5 -1 5 C-0.67 3.35 -0.34 1.7 0 0 Z " fill="#1D0C00" transform="translate(804,379)"/>
<path d="M0 0 C-0.33 1.65 -0.66 3.3 -1 5 C-2.65 5.33 -4.3 5.66 -6 6 C-6.66 4.68 -7.32 3.36 -8 2 C-4.77208445 -0.1519437 -3.71599191 -0.20086443 0 0 Z " fill="#150C06" transform="translate(921,300)"/>
<path d="M0 0 C-0.33 1.65 -0.66 3.3 -1 5 C-2.65 5.33 -4.3 5.66 -6 6 C-6.66 4.68 -7.32 3.36 -8 2 C-4.77208445 -0.1519437 -3.71599191 -0.20086443 0 0 Z " fill="#150C06" transform="translate(883,300)"/>
<path d="M0 0 C1.32 0 2.64 0 4 0 C4.33 3.63 4.66 7.26 5 11 C3.35 11 1.7 11 0 11 C0 7.37 0 3.74 0 0 Z " fill="#FBFFF3" transform="translate(872,514)"/>
<path d="M0 0 C0.33 1.32 0.66 2.64 1 4 C0.34 4 -0.32 4 -1 4 C-1.33 7.3 -1.66 10.6 -2 14 C-2.33 14 -2.66 14 -3 14 C-3.33 11.69 -3.66 9.38 -4 7 C-5.65 6.67 -7.3 6.34 -9 6 C-9.33 6.66 -9.66 7.32 -10 8 C-9.67 6.68 -9.34 5.36 -9 4 C-7.88625 3.71125 -6.7725 3.4225 -5.625 3.125 C-1.99708908 2.30758671 -1.99708908 2.30758671 0 0 Z " fill="#C4D3D4" transform="translate(832,510)"/>
<path d="M0 0 C0 1.65 0 3.3 0 5 C-3.3125 5.6875 -3.3125 5.6875 -7 6 C-8.73046875 4.51953125 -8.73046875 4.51953125 -10 3 C-8.52144705 2.49818809 -7.04213942 1.99859924 -5.5625 1.5 C-4.73878906 1.2215625 -3.91507813 0.943125 -3.06640625 0.65625 C-1 0 -1 0 0 0 Z " fill="#130C08" transform="translate(693,309)"/>
<path d="M0 0 C2.31 0 4.62 0 7 0 C7 1.65 7 3.3 7 5 C4.69 5 2.38 5 0 5 C0 3.35 0 1.7 0 0 Z " fill="#EEE0C3" transform="translate(1010,278)"/>
<path d="M0 0 C2.0625 0.4375 2.0625 0.4375 4 1 C4 2.98 4 4.96 4 7 C2.68 7 1.36 7 0 7 C-1 6 -1 6 -1.125 3.5 C-1 1 -1 1 0 0 Z " fill="#170800" transform="translate(761,379)"/>
<path d="M0 0 C1.65 0.33 3.3 0.66 5 1 C4.67 2.65 4.34 4.3 4 6 C2.35 5.67 0.7 5.34 -1 5 C-0.67 3.35 -0.34 1.7 0 0 Z " fill="#F8F5ED" transform="translate(806,431)"/>
<path d="M0 0 C1.32 0 2.64 0 4 0 C4 3.3 4 6.6 4 10 C3.01 10 2.02 10 1 10 C0.67 6.7 0.34 3.4 0 0 Z " fill="#DAEFFC" transform="translate(859,514)"/>
<path d="M0 0 C0.8971875 0.309375 0.8971875 0.309375 1.8125 0.625 C0.8225 0.625 -0.1675 0.625 -1.1875 0.625 C-1.1875 1.285 -1.1875 1.945 -1.1875 2.625 C-2.85416667 4.29166667 -4.52083333 5.95833333 -6.1875 7.625 C-7.48269995 9.79120544 -7.48269995 9.79120544 -8.1875 11.625 C-8.5175 11.625 -8.8475 11.625 -9.1875 11.625 C-9.58147781 8.17769416 -9.3519697 6.86886886 -7.375 3.9375 C-3.14098837 -0.53845515 -3.14098837 -0.53845515 0 0 Z " fill="#D9D9D9" transform="translate(754.1875,494.375)"/>
<path d="M0 0 C1.2065625 0.0309375 1.2065625 0.0309375 2.4375 0.0625 C2.1075 0.7225 1.7775 1.3825 1.4375 2.0625 C0.7775 2.0625 0.1175 2.0625 -0.5625 2.0625 C-0.5625 3.0525 -0.5625 4.0425 -0.5625 5.0625 C0.4275 5.0625 1.4175 5.0625 2.4375 5.0625 C2.4375 5.7225 2.4375 6.3825 2.4375 7.0625 C0.77138095 7.105221 -0.89632885 7.10313832 -2.5625 7.0625 C-3.5625 6.0625 -3.5625 6.0625 -3.6875 3.5625 C-3.51717518 0.15600356 -3.41884482 0.08338646 0 0 Z " fill="#F29D00" transform="translate(885.5625,381.9375)"/>
<path d="M0 0 C1.2065625 0.0309375 1.2065625 0.0309375 2.4375 0.0625 C2.1075 0.7225 1.7775 1.3825 1.4375 2.0625 C0.7775 2.0625 0.1175 2.0625 -0.5625 2.0625 C-0.5625 3.0525 -0.5625 4.0425 -0.5625 5.0625 C0.4275 5.0625 1.4175 5.0625 2.4375 5.0625 C2.4375 5.7225 2.4375 6.3825 2.4375 7.0625 C0.77138095 7.105221 -0.89632885 7.10313832 -2.5625 7.0625 C-3.5625 6.0625 -3.5625 6.0625 -3.6875 3.5625 C-3.51717518 0.15600356 -3.41884482 0.08338646 0 0 Z " fill="#F29D00" transform="translate(828.5625,381.9375)"/>
<path d="M0 0 C1.98 0 3.96 0 6 0 C6 1.65 6 3.3 6 5 C4.02 5 2.04 5 0 5 C0 3.35 0 1.7 0 0 Z " fill="#FAEBD0" transform="translate(638,278)"/>
<path d="M0 0 C0.66 0.66 1.32 1.32 2 2 C3.32 1.67 4.64 1.34 6 1 C3.525 5.455 3.525 5.455 1 10 C0.67 10 0.34 10 0 10 C0 6.7 0 3.4 0 0 Z " fill="#070922" transform="translate(877,514)"/>
<path d="M0 0 C1.98 0 3.96 0 6 0 C5.67 1.65 5.34 3.3 5 5 C3.35 5 1.7 5 0 5 C0 3.35 0 1.7 0 0 Z " fill="#FEFDF9" transform="translate(685,427)"/>
<path d="M0 0 C0.99 0 1.98 0 3 0 C3 2.97 3 5.94 3 9 C2.01 9 1.02 9 0 9 C0 6.03 0 3.06 0 0 Z " fill="#032740" transform="translate(870,515)"/>
<path d="M0 0 C0.66 0.33 1.32 0.66 2 1 C2 1.99 2 2.98 2 4 C0.02 4.66 -1.96 5.32 -4 6 C-4.33 4.68 -4.66 3.36 -5 2 C-2.625 0.9375 -2.625 0.9375 0 0 Z " fill="#BBB6B0" transform="translate(714,433)"/>
<path d="M0 0 C1.78409802 3.06246747 2.22880021 5.22079273 2.125 8.75 C2.10695313 9.54921875 2.08890625 10.3484375 2.0703125 11.171875 C2.03550781 12.07679688 2.03550781 12.07679688 2 13 C1.01 12.67 0.02 12.34 -1 12 C-1.2226746 10.56465159 -1.42761906 9.12654475 -1.625 7.6875 C-1.74101563 6.88699219 -1.85703125 6.08648437 -1.9765625 5.26171875 C-2 3 -2 3 0 0 Z " fill="#878595" transform="translate(768,426)"/>
<path d="M0 0 C0.66 0 1.32 0 2 0 C2.33 0.99 2.66 1.98 3 3 C4.90708843 3.91428339 4.90708843 3.91428339 7 4 C7.66 3.34 8.32 2.68 9 2 C9 3.32 9 4.64 9 6 C6.03 6 3.06 6 0 6 C0 4.02 0 2.04 0 0 Z " fill="#A0C7C9" transform="translate(786,519)"/>
<path d="M0 0 C1.98 0.66 3.96 1.32 6 2 C5.67 3.32 5.34 4.64 5 6 C2.525 5.01 2.525 5.01 0 4 C0 2.68 0 1.36 0 0 Z " fill="#0E0D0F" transform="translate(788,518)"/>
<path d="M0 0 C2.97 0 5.94 0 9 0 C7 4 7 4 4.875 4.75 C3.946875 4.87375 3.946875 4.87375 3 5 C3.33 4.01 3.66 3.02 4 2 C2.68 2.33 1.36 2.66 0 3 C0 2.01 0 1.02 0 0 Z " fill="#E4EDE9" transform="translate(878,514)"/>
<path d="M0 0 C4 0 4 0 7 2 C6.67 3.65 6.34 5.3 6 7 C5.67 6.01 5.34 5.02 5 4 C1.99152582 2.77479736 1.99152582 2.77479736 -1 2 C-0.67 1.34 -0.34 0.68 0 0 Z " fill="#E6E9E4" transform="translate(723,430)"/>
<path d="M0 0 C2 2 2 2 2.25 5 C2 8 2 8 0 10 C-1 9 -1 9 -1.1328125 7.1875 C-1.13023437 6.465625 -1.12765625 5.74375 -1.125 5 C-1.12757813 4.278125 -1.13015625 3.55625 -1.1328125 2.8125 C-1 1 -1 1 0 0 Z " fill="#ECEDE8" transform="translate(770,429)"/>
<path d="M0 0 C1.65 0 3.3 0 5 0 C4.34 0.66 3.68 1.32 3 2 C2.54188325 3.97235333 2.54188325 3.97235333 2.375 6.125 C2.25125 7.40375 2.1275 8.6825 2 10 C1.34 10 0.68 10 0 10 C0 6.7 0 3.4 0 0 Z " fill="#8A8696" transform="translate(825,429)"/>
<path d="M0 0 C3.3 0.33 6.6 0.66 10 1 C9.67 1.99 9.34 2.98 9 4 C3.48 4.368 3.48 4.368 1.125 2.5625 C0 1 0 1 0 0 Z " fill="#F09600" transform="translate(804,385)"/>
<path d="M0 0 C3 1 3 1 4.1875 3.0625 C4.455625 3.701875 4.72375 4.34125 5 5 C2.69 5 0.38 5 -2 5 C-1.125 1.125 -1.125 1.125 0 0 Z " fill="#945A00" transform="translate(917,377)"/>
<path d="M0 0 C3 1 3 1 4.1875 3.0625 C4.455625 3.701875 4.72375 4.34125 5 5 C2.69 5 0.38 5 -2 5 C-1.125 1.125 -1.125 1.125 0 0 Z " fill="#945A00" transform="translate(794,377)"/>
<path d="M0 0 C0.66 0.33 1.32 0.66 2 1 C0.98823563 4.40320742 0.35156418 5.75725331 -2.625 7.8125 C-3.40875 8.204375 -4.1925 8.59625 -5 9 C-5.66 8.34 -6.32 7.68 -7 7 C-6.21625 6.5875 -5.4325 6.175 -4.625 5.75 C-1.94108344 3.9607223 -1.11901051 2.95011861 0 0 Z " fill="#D2D2D2" transform="translate(926,532)"/>
<path d="M0 0 C1.875 0.25 1.875 0.25 4 1 C5.25 3.0625 5.25 3.0625 6 5 C1.25 4.125 1.25 4.125 -1 3 C-0.67 2.01 -0.34 1.02 0 0 Z " fill="#1E1913" transform="translate(790,511)"/>
<path d="M0 0 C0.99 0.33 1.98 0.66 3 1 C2.67 3.97 2.34 6.94 2 10 C1.34 10 0.68 10 0 10 C0 6.7 0 3.4 0 0 Z " fill="#957F86" transform="translate(756,429)"/>
<path d="M0 0 C0 0.66 0 1.32 0 2 C-2.31 2.66 -4.62 3.32 -7 4 C-7.33 3.01 -7.66 2.02 -8 1 C-5.07175348 0.02391783 -3.04386724 -0.08226668 0 0 Z " fill="#F6F7F1" transform="translate(716,431)"/>
<path d="M0 0 C0.66 0 1.32 0 2 0 C2 2.64 2 5.28 2 8 C1.34 8 0.68 8 0 8 C-0.66 6.35 -1.32 4.7 -2 3 C-1.34 3 -0.68 3 0 3 C0 2.01 0 1.02 0 0 Z " fill="#766971" transform="translate(810,515)"/>
<path d="M0 0 C0.33 0 0.66 0 1 0 C1 1.98 1 3.96 1 6 C-0.98 6 -2.96 6 -5 6 C-4.34 4.68 -3.68 3.36 -3 2 C-2.01 2 -1.02 2 0 2 C0 1.34 0 0.68 0 0 Z " fill="#CCC4BD" transform="translate(853,431)"/>
<path d="M0 0 C0.66 0 1.32 0 2 0 C2 0.99 2 1.98 2 3 C2.66 3.33 3.32 3.66 4 4 C2.35 4.33 0.7 4.66 -1 5 C-0.67 3.35 -0.34 1.7 0 0 Z " fill="#E9F1EF" transform="translate(808,520)"/>
<path d="M0 0 C0.66 0.33 1.32 0.66 2 1 C0.68 2.65 -0.64 4.3 -2 6 C-2.66 5.67 -3.32 5.34 -4 5 C-3.6875 3.0625 -3.6875 3.0625 -3 1 C-2.01 0.67 -1.02 0.34 0 0 Z " fill="#E1E5DB" transform="translate(883,518)"/>
<path d="M0 0 C0.33 1.32 0.66 2.64 1 4 C-0.98 4 -2.96 4 -5 4 C-5.33 3.01 -5.66 2.02 -6 1 C-3.03 1.495 -3.03 1.495 0 2 C0 1.34 0 0.68 0 0 Z " fill="#9C9491" transform="translate(726,435)"/>
<path d="M0 0 C0.8971875 0.309375 0.8971875 0.309375 1.8125 0.625 C0.69875 1.2746875 0.69875 1.2746875 -0.4375 1.9375 C-2.80583926 3.39079909 -4.99674065 4.92107606 -7.1875 6.625 C-4.6484375 -0.796875 -4.6484375 -0.796875 0 0 Z " fill="#B7C9C5" transform="translate(1107.1875,286.375)"/>
<path d="M0 0 C0.66 0.33 1.32 0.66 2 1 C-0.31 3.31 -2.62 5.62 -5 8 C-5 5 -5 5 -2.5 2.3125 C-1.675 1.549375 -0.85 0.78625 0 0 Z " fill="#C2D0CA" transform="translate(953,278)"/>
</svg>
